<svg width="152" height="36" viewBox="0 0 152 36" fill="none" xmlns="http://www.w3.org/2000/svg">
<g clip-path="url(#clip0_892_13410)">
<path d="M82.5029 33.9932V26.5015H83.2318V30.2556L83.1312 31.327L83.2024 32.3943V33.9932H82.5029ZM85.2843 34.0427C84.8445 34.046 84.4114 33.9366 84.0276 33.7254C83.6464 33.5064 83.3368 33.1847 83.1354 32.7982C82.9059 32.3444 82.7937 31.8419 82.8087 31.3353C82.792 30.8267 82.9058 30.3221 83.1396 29.8682C83.3468 29.4863 83.6589 29.1694 84.0402 28.9534C84.4247 28.7443 84.8575 28.6364 85.2968 28.6402C85.7795 28.634 86.2555 28.7504 86.6791 28.9781C87.0761 29.202 87.4034 29.5283 87.6258 29.9218C87.8543 30.3583 87.9735 30.8422 87.9735 31.3332C87.9735 31.8242 87.8543 32.3081 87.6258 32.7446C87.4004 33.1432 87.0688 33.4738 86.6665 33.7006C86.2441 33.9316 85.7675 34.0495 85.2843 34.0427ZM85.234 33.4039C85.5932 33.4111 85.9477 33.3228 86.2602 33.1484C86.5624 32.9763 86.8103 32.7253 86.9765 32.4232C87.1525 32.0867 87.2443 31.7137 87.2443 31.3353C87.2443 30.9568 87.1525 30.5838 86.9765 30.2473C86.81 29.9465 86.5621 29.6969 86.2602 29.5262C85.9451 29.3559 85.5914 29.2667 85.2319 29.2667C84.8724 29.2667 84.5187 29.3559 84.2036 29.5262C83.8995 29.6954 83.6498 29.9453 83.4831 30.2473C83.3042 30.5825 83.2149 30.9568 83.2234 31.3353C83.2159 31.7136 83.3052 32.0877 83.4831 32.4232C83.6497 32.7263 83.8993 32.9776 84.2036 33.1484C84.5175 33.3232 84.8734 33.4114 85.234 33.4039Z" fill="#000652"/>
<path d="M89.3472 35.9999C89.1006 36.0001 88.8556 35.9597 88.6226 35.8804C88.4016 35.803 88.2011 35.6777 88.0361 35.5137L88.3712 34.9821C88.5027 35.1049 88.6542 35.2052 88.8194 35.2788C88.9898 35.3518 89.174 35.3883 89.3598 35.3859C89.5832 35.3905 89.8016 35.3208 89.9797 35.1881C90.1964 34.9969 90.3667 34.7603 90.4782 34.4958L90.8258 33.717L90.9054 33.6057L93.1255 28.6936H93.8417L91.1442 34.6153C91.0223 34.9137 90.8541 35.1917 90.6457 35.4395C90.4848 35.6209 90.2824 35.7622 90.0551 35.8516C89.8315 35.9467 89.5908 35.9971 89.3472 35.9999ZM90.7839 34.1414L88.3 28.6936H89.0582L91.2573 33.5562L90.7839 34.1414Z" fill="#000652"/>
<path d="M99.1031 33.9931V27.5728H96.5898V26.9258H102.395V27.5728H99.8822V33.9931H99.1031Z" fill="#000652"/>
<path d="M105.169 34.0425C104.653 34.054 104.144 33.9333 103.69 33.6922C103.279 33.468 102.939 33.1373 102.706 32.7362C102.461 32.3091 102.336 31.8254 102.345 31.3351C102.335 30.8493 102.453 30.3693 102.689 29.9422C102.91 29.5457 103.237 29.2165 103.635 28.9903C104.044 28.7531 104.51 28.6319 104.984 28.64C105.456 28.6327 105.922 28.7493 106.333 28.9779C106.726 29.2035 107.047 29.5334 107.259 29.9299C107.491 30.3624 107.608 30.846 107.598 31.3351C107.6 31.3708 107.6 31.4065 107.598 31.4422C107.596 31.4807 107.596 31.5192 107.598 31.5576H102.907V31.0219H107.208L106.919 31.2362C106.926 30.8787 106.839 30.5255 106.668 30.2101C106.51 29.9195 106.274 29.6772 105.985 29.5095C105.684 29.3375 105.341 29.2506 104.993 29.2582C104.643 29.2517 104.299 29.3386 103.996 29.5095C103.704 29.6763 103.466 29.9205 103.309 30.2142C103.14 30.5364 103.056 30.8945 103.062 31.2568V31.3681C103.053 31.7401 103.147 32.1075 103.334 32.4312C103.514 32.7349 103.777 32.9832 104.092 33.1483C104.436 33.3243 104.819 33.4121 105.206 33.4038C105.52 33.4082 105.832 33.3508 106.124 33.2348C106.408 33.1205 106.66 32.9394 106.857 32.7073L107.276 33.173C107.035 33.458 106.728 33.6803 106.379 33.82C105.995 33.9747 105.583 34.0504 105.169 34.0425Z" fill="#000652"/>
<path d="M111.829 28.64C112.227 28.6314 112.622 28.7161 112.98 28.8873C113.315 29.0523 113.589 29.3159 113.764 29.6414C113.963 30.0349 114.06 30.4711 114.044 30.9106V33.993H113.316V30.9848C113.352 30.5238 113.202 30.0674 112.897 29.7156C112.737 29.57 112.549 29.4584 112.343 29.3875C112.138 29.3166 111.92 29.288 111.703 29.3035C111.355 29.2948 111.011 29.3728 110.702 29.5301C110.421 29.6792 110.192 29.9073 110.044 30.1853C109.884 30.5069 109.805 30.8617 109.814 31.2197V34.0095H109.085V28.6936H109.784V30.1441L109.671 29.8721C109.844 29.4898 110.138 29.173 110.509 28.9697C110.911 28.7467 111.367 28.6329 111.829 28.64Z" fill="#000652"/>
<path d="M118.158 34.0427C117.676 34.0495 117.201 33.9316 116.78 33.7006C116.377 33.4752 116.045 33.1443 115.821 32.7446C115.59 32.3089 115.469 31.8247 115.469 31.3332C115.469 30.8417 115.59 30.3575 115.821 29.9218C116.045 29.5258 116.377 29.199 116.78 28.9781C117.202 28.7504 117.677 28.634 118.158 28.6402C118.597 28.6362 119.03 28.7441 119.415 28.9534C119.794 29.1697 120.103 29.4868 120.307 29.8682C120.541 30.3221 120.655 30.8267 120.638 31.3353C120.653 31.8419 120.541 32.3444 120.311 32.7982C120.111 33.1845 119.803 33.5064 119.423 33.7254C119.037 33.9389 118.601 34.0484 118.158 34.0427ZM118.208 33.4039C118.57 33.411 118.927 33.3228 119.243 33.1484C119.545 32.9763 119.793 32.7253 119.959 32.4232C120.14 32.0887 120.231 31.7141 120.223 31.3353C120.232 30.9563 120.141 30.5814 119.959 30.2473C119.793 29.9465 119.545 29.6969 119.243 29.5262C118.927 29.3469 118.569 29.2543 118.204 29.2583C117.849 29.2536 117.498 29.3433 117.19 29.5179C116.889 29.6886 116.641 29.9382 116.474 30.2391C116.298 30.5755 116.206 30.9485 116.206 31.327C116.206 31.7055 116.298 32.0785 116.474 32.4149C116.64 32.717 116.888 32.968 117.19 33.1402C117.498 33.3163 117.848 33.4074 118.204 33.4039H118.208ZM120.24 33.9932V32.3943L120.299 31.3188L120.194 30.2473V26.5015H120.923V33.9932H120.24Z" fill="#000652"/>
<path d="M125.258 34.0427C124.743 34.0542 124.233 33.9335 123.779 33.6924C123.366 33.4694 123.022 33.1386 122.787 32.7364C122.542 32.3092 122.418 31.8255 122.426 31.3353C122.416 30.8495 122.534 30.3695 122.77 29.9424C122.991 29.5459 123.318 29.2167 123.717 28.9905C124.125 28.7539 124.592 28.6327 125.065 28.6402C125.537 28.6329 126.003 28.7495 126.414 28.9781C126.807 29.2037 127.128 29.5336 127.34 29.9301C127.572 30.3626 127.689 30.8461 127.679 31.3353C127.681 31.371 127.681 31.4067 127.679 31.4424C127.677 31.4809 127.677 31.5194 127.679 31.5578H122.979V31.0221H127.281L126.992 31.2364C126.998 30.8789 126.912 30.5257 126.741 30.2103C126.583 29.9197 126.347 29.6774 126.058 29.5097C125.757 29.3377 125.413 29.2507 125.065 29.2584C124.716 29.2523 124.372 29.3391 124.068 29.5097C123.777 29.6765 123.539 29.9207 123.381 30.2144C123.213 30.5366 123.128 30.8947 123.134 31.257V31.3682C123.126 31.7403 123.22 32.1077 123.407 32.4314C123.587 32.7351 123.849 32.9834 124.165 33.1485C124.509 33.3239 124.892 33.4118 125.279 33.404C125.593 33.4084 125.905 33.351 126.196 33.235C126.481 33.1199 126.734 32.939 126.934 32.7075L127.352 33.1732C127.112 33.4582 126.804 33.6805 126.456 33.8202C126.076 33.9732 125.669 34.0489 125.258 34.0427Z" fill="#000652"/>
<path d="M131.918 28.6402C132.318 28.6323 132.714 28.717 133.074 28.8874C133.407 29.0538 133.679 29.3172 133.853 29.6415C134.05 30.0343 134.142 30.4695 134.121 30.9067V33.9891H133.392V30.9808C133.429 30.5199 133.278 30.0635 132.974 29.7116C132.814 29.5661 132.626 29.4544 132.42 29.3835C132.215 29.3126 131.997 29.284 131.78 29.2995C131.432 29.2909 131.088 29.3689 130.779 29.5262C130.499 29.6764 130.27 29.9043 130.121 30.1814C129.961 30.503 129.882 30.8577 129.891 31.2157V34.0056H129.166V28.6937H129.861V30.1443L129.748 29.8723C129.92 29.4899 130.214 29.1731 130.586 28.9698C130.992 28.7447 131.452 28.6309 131.918 28.6402Z" fill="#000652"/>
<path d="M138.339 34.0425C137.84 34.0515 137.347 33.9307 136.911 33.6923C136.497 33.4692 136.153 33.1385 135.918 32.7362C135.681 32.3059 135.558 31.8243 135.558 31.3351C135.558 30.8459 135.681 30.3644 135.918 29.934C136.152 29.5329 136.496 29.2046 136.911 28.9862C137.348 28.751 137.84 28.6317 138.339 28.6401C138.773 28.6307 139.203 28.721 139.596 28.9038C139.96 29.0741 140.263 29.3484 140.467 29.6909L139.922 30.0535C139.752 29.7983 139.515 29.5932 139.235 29.4601C138.931 29.322 138.597 29.2561 138.262 29.2675C137.927 29.279 137.599 29.3675 137.304 29.5261C136.999 29.6952 136.748 29.945 136.58 30.2472C136.404 30.5844 136.312 30.9581 136.312 31.3372C136.312 31.7163 136.404 32.0899 136.58 32.4272C136.749 32.7285 137 32.978 137.304 33.1483C137.6 33.3041 137.927 33.3911 138.262 33.4025C138.597 33.4139 138.93 33.3495 139.235 33.2142C139.513 33.0829 139.75 32.8809 139.922 32.6291L140.467 32.9917C140.253 33.3398 139.94 33.6179 139.566 33.7912C139.182 33.9652 138.762 34.0511 138.339 34.0425Z" fill="#000652"/>
<path d="M141.841 35.9999C141.594 36.0005 141.349 35.9601 141.116 35.8804C140.893 35.8041 140.691 35.6786 140.525 35.5137L140.865 34.9821C140.994 35.1057 141.144 35.2061 141.309 35.2788C141.479 35.3509 141.663 35.3874 141.849 35.3859C142.073 35.3911 142.291 35.3214 142.469 35.1881C142.687 34.998 142.857 34.7612 142.967 34.4958L143.315 33.717L143.399 33.6057L145.615 28.6936H146.331L143.633 34.6153C143.513 34.9145 143.345 35.1928 143.135 35.4395C142.975 35.6198 142.774 35.7609 142.549 35.8516C142.325 35.9467 142.084 35.9971 141.841 35.9999ZM143.277 34.1414L140.793 28.6936H141.552L143.755 33.5562L143.277 34.1414Z" fill="#000652"/>
<path d="M148.744 34.0426C148.318 34.0449 147.894 33.9823 147.487 33.8572C147.146 33.7575 146.828 33.5953 146.549 33.3791L146.876 32.8105C147.131 32.9896 147.414 33.1286 147.713 33.2225C148.059 33.342 148.423 33.4019 148.79 33.3997C149.176 33.4311 149.562 33.3479 149.9 33.1607C150.006 33.0927 150.093 32.9991 150.153 32.8888C150.212 32.7785 150.242 32.655 150.239 32.5302C150.244 32.4447 150.229 32.3591 150.196 32.28C150.162 32.2008 150.111 32.13 150.046 32.0728C149.904 31.9514 149.735 31.8652 149.552 31.8214C149.325 31.759 149.094 31.7094 148.861 31.6731C148.61 31.6319 148.358 31.5865 148.107 31.533C147.87 31.4821 147.641 31.4018 147.424 31.294C147.228 31.1984 147.058 31.0569 146.93 30.8819C146.791 30.6656 146.724 30.4122 146.737 30.1566C146.735 29.8779 146.821 29.6055 146.984 29.3778C147.172 29.1367 147.424 28.9525 147.713 28.8462C148.084 28.7047 148.48 28.6374 148.878 28.6484C149.231 28.6492 149.583 28.6949 149.925 28.7844C150.23 28.8569 150.522 28.978 150.788 29.1429L150.457 29.7115C150.221 29.5544 149.961 29.4361 149.686 29.3613C149.413 29.2912 149.131 29.2566 148.848 29.2583C148.474 29.2304 148.099 29.3167 147.776 29.5055C147.67 29.5741 147.583 29.6678 147.523 29.7779C147.463 29.888 147.432 30.0111 147.433 30.136C147.428 30.2237 147.442 30.3113 147.475 30.3931C147.507 30.4748 147.557 30.5488 147.621 30.6099C147.767 30.7346 147.938 30.8261 148.124 30.8778C148.349 30.9438 148.579 30.9961 148.811 31.0344C149.062 31.0756 149.309 31.1209 149.561 31.1786C149.798 31.2318 150.028 31.3106 150.247 31.4135C150.466 31.5062 150.649 31.6627 150.774 31.8618C150.898 32.0609 150.957 32.2928 150.943 32.5261C150.949 32.8156 150.856 33.0987 150.679 33.3297C150.481 33.5713 150.218 33.7539 149.921 33.8572C149.543 33.9865 149.144 34.0493 148.744 34.0426Z" fill="#000652"/>
<path d="M41.1011 22.9369C39.6761 22.968 38.2634 22.6717 36.9752 22.0715C35.85 21.5474 34.904 20.7127 34.2525 19.669C33.6006 18.5804 33.2699 17.3347 33.2975 16.0715C33.2679 14.4245 33.6904 12.8001 34.5206 11.3696C35.3177 10.0072 36.4759 8.88342 37.8716 8.11819C39.3861 7.30618 41.0898 6.8971 42.8143 6.93138C44.2622 6.88203 45.6996 7.19091 46.9947 7.82973C48.159 8.44704 49.1001 9.40451 49.688 10.5701L46.5046 12.1814C46.1897 11.4824 45.6514 10.9036 44.9715 10.533C44.2194 10.1597 43.384 9.97832 42.5421 10.0056C41.5569 9.99258 40.5877 10.2509 39.744 10.7514C38.9096 11.2495 38.229 11.9618 37.7753 12.8119C37.2857 13.755 37.0411 14.8026 37.0632 15.8613C37.0331 16.391 37.1156 16.9211 37.3052 17.4178C37.4949 17.9144 37.7876 18.3667 38.1648 18.7459C38.8992 19.452 39.9408 19.8036 41.2896 19.8009C42.1337 19.8089 42.9686 19.6286 43.7317 19.2734C44.5073 18.9027 45.1671 18.3333 45.6417 17.6251L48.3812 19.4424C47.619 20.5591 46.5599 21.4485 45.3192 22.0138C44.0031 22.6338 42.5603 22.9495 41.1011 22.9369Z" fill="#000652"/>
<path d="M58.1661 22.9369C56.7411 22.968 55.3284 22.6717 54.0402 22.0715C52.9145 21.5465 51.9674 20.7121 51.3133 19.669C50.6589 18.581 50.3239 17.3356 50.3457 16.0715C50.3244 14.4147 50.7586 12.783 51.6023 11.349C52.4011 9.98791 53.5589 8.8645 54.9533 8.09761C56.4677 7.28507 58.1715 6.87595 59.8961 6.9108C61.3359 6.87266 62.7627 7.18852 64.0471 7.82976C65.2115 8.44707 66.1525 9.40453 66.7405 10.5701L63.557 12.1814C63.2418 11.4812 62.7017 10.9022 62.0197 10.5331C61.2689 10.1604 60.435 9.97904 59.5945 10.0056C58.6092 9.99195 57.6399 10.2504 56.7964 10.7515C55.9611 11.2484 55.2802 11.961 54.8277 12.8119C54.3382 13.755 54.0935 14.8026 54.1156 15.8614C54.0845 16.3912 54.1665 16.9215 54.3562 17.4183C54.5459 17.9151 54.8392 18.3674 55.2172 18.746C55.9517 19.452 56.9933 19.8037 58.342 19.8009C59.1861 19.8089 60.0211 19.6286 60.7841 19.2734C61.5592 18.9037 62.2179 18.334 62.69 17.6251L65.4252 19.4506C64.6702 20.5621 63.6198 21.4487 62.3884 22.0138C61.071 22.6344 59.6267 22.9502 58.1661 22.9369Z" fill="#000652"/>
<path d="M75.4991 22.9368C74.0943 22.9682 72.7019 22.6716 71.4361 22.0714C70.3218 21.5408 69.3856 20.7071 68.7385 19.6689C68.0899 18.5791 67.7608 17.3339 67.7877 16.0714C67.7586 14.425 68.1796 12.8011 69.0066 11.3695C69.8058 10.0088 70.9635 8.88547 72.3576 8.11808C73.8476 7.30913 75.5276 6.89984 77.2291 6.93127C78.6393 6.89536 80.0391 7.17728 81.3215 7.75544C82.4354 8.27097 83.3727 9.09429 84.019 10.125C84.6741 11.2316 85.0034 12.4958 84.9699 13.7761C84.9957 15.4169 84.5748 17.0346 83.751 18.4615C82.9565 19.8375 81.7986 20.9766 80.4 21.7582C78.9018 22.5724 77.2102 22.9792 75.4991 22.9368ZM75.7379 19.8008C76.7346 19.8215 77.7167 19.5628 78.5695 19.0549C79.3891 18.5494 80.0571 17.8382 80.5047 16.9945C80.9937 16.0512 81.2383 15.0037 81.2168 13.945C81.2471 13.4153 81.1648 12.8851 80.9751 12.3884C80.7854 11.8918 80.4925 11.4394 80.1151 11.0604C79.3821 10.3557 78.3475 10.0054 77.0196 10.0054C76.0332 9.99554 75.0637 10.2582 74.2216 10.7637C73.394 11.2649 72.7196 11.9768 72.2696 12.8241C71.7781 13.7665 71.5334 14.8146 71.5575 15.8736C71.5262 16.4034 71.608 16.9339 71.7977 17.4307C71.9875 17.9275 72.2809 18.3797 72.6592 18.7582C73.3824 19.4532 74.4087 19.8008 75.7379 19.8008Z" fill="#000652"/>
<path d="M92.5436 22.9369C91.3505 22.9741 90.1699 22.6891 89.1298 22.1128C88.1886 21.5626 87.4774 20.7007 87.1234 19.6815C86.7156 18.4141 86.6736 17.0602 87.0019 15.7707L88.7612 7.11689H92.4808L90.7257 15.6595C90.4883 16.9287 90.6126 17.9191 91.0985 18.6306C91.5844 19.3422 92.4724 19.6993 93.7625 19.7021C94.9793 19.7405 96.1693 19.3454 97.1135 18.5894C98.0183 17.8477 98.6187 16.7144 98.9147 15.1897L100.59 7.07568H104.285L101.126 22.735H97.5827L98.4749 18.2845L99.0739 19.6897C98.3764 20.7567 97.3919 21.6126 96.2297 22.1622C95.0748 22.6866 93.8156 22.9513 92.5436 22.9369Z" fill="#000652"/>
<path d="M116.771 6.91062C117.987 6.8739 119.191 7.15851 120.256 7.7348C121.202 8.27526 121.916 9.13468 122.267 10.1538C122.66 11.4241 122.696 12.7755 122.372 14.0645L120.612 22.7183H116.893L118.623 14.1469C118.878 12.8777 118.761 11.8886 118.267 11.1716C117.772 10.4546 116.864 10.1043 115.552 10.1043C114.322 10.058 113.116 10.4535 112.16 11.2169C111.269 11.9587 110.663 13.0919 110.342 14.6167L108.666 22.7307H104.942L108.101 7.07134H111.644L110.756 11.5384L110.162 10.1332C110.857 9.07037 111.843 8.22197 113.006 7.68535C114.189 7.16052 115.474 6.89612 116.771 6.91062Z" fill="#000652"/>
<path d="M124.398 10.1334L124.993 7.20342H135.566L134.958 10.1334H124.398ZM129.932 22.9369C128.998 22.9627 128.074 22.7346 127.264 22.2776C126.529 21.848 125.962 21.1875 125.655 20.4026C125.32 19.4764 125.264 18.475 125.492 17.518L128.323 3.63062H132.026L129.199 17.4891C129.06 18.0835 129.145 18.707 129.437 19.2446C129.714 19.6938 130.242 19.9205 131.017 19.9205C131.384 19.9186 131.75 19.8645 132.102 19.7597C132.456 19.6589 132.792 19.5046 133.098 19.3023L133.756 21.9974C133.193 22.3537 132.566 22.6025 131.909 22.7309C131.258 22.8645 130.596 22.9335 129.932 22.9369Z" fill="#000652"/>
<path d="M142.834 22.9368C141.515 22.9467 140.202 22.7789 138.93 22.4382C137.934 22.2001 136.987 21.7944 136.132 21.239L137.682 18.4244C138.435 18.9182 139.263 19.2897 140.136 19.5247C141.139 19.8047 142.177 19.9435 143.219 19.9368C144.451 19.9368 145.36 19.7706 145.946 19.4382C146.209 19.3134 146.432 19.118 146.587 18.8746C146.743 18.6311 146.826 18.3494 146.826 18.0618C146.829 17.8575 146.772 17.6566 146.66 17.4843C146.548 17.3121 146.387 17.1761 146.197 17.0934C145.693 16.8483 145.158 16.6709 144.606 16.5659L142.511 16.1291C141.793 15.9831 141.091 15.7663 140.417 15.4821C139.791 15.2233 139.243 14.8103 138.825 14.283C138.383 13.6683 138.163 12.9253 138.201 12.1731C138.173 11.1454 138.509 10.1402 139.152 9.32967C139.858 8.50183 140.781 7.87921 141.82 7.52884C143.086 7.08761 144.423 6.87404 145.766 6.89835C146.827 6.89647 147.886 7.014 148.92 7.24862C149.832 7.4304 150.705 7.76643 151.5 8.24176L150.131 11.0563C149.424 10.6113 148.642 10.2931 147.823 10.1168C147.036 9.95733 146.234 9.88135 145.431 9.89011C144.219 9.89011 143.321 10.0714 142.737 10.4341C142.48 10.5624 142.263 10.7563 142.108 10.9956C141.954 11.2348 141.867 11.5105 141.858 11.794C141.861 12.0001 141.922 12.2013 142.035 12.3747C142.149 12.5481 142.309 12.6867 142.499 12.7747C142.999 13.0399 143.535 13.2328 144.09 13.3475C144.736 13.4918 145.431 13.6401 146.185 13.7843C146.903 13.9233 147.605 14.1346 148.279 14.4148C148.903 14.6734 149.452 15.0814 149.875 15.6016C150.315 16.1988 150.535 16.9255 150.499 17.6621C150.528 18.7052 150.186 19.7255 149.532 20.5467C148.821 21.3797 147.886 21.9982 146.834 22.331C145.546 22.7572 144.193 22.9621 142.834 22.9368Z" fill="#000652"/>
<path fill-rule="evenodd" clip-rule="evenodd" d="M19.3205 7.19928L20.7028 22.0344C20.7206 22.2297 20.8123 22.4113 20.9596 22.5433C21.107 22.6753 21.2993 22.7481 21.4986 22.7474H29.7421C29.8413 22.7472 29.9394 22.7267 30.0302 22.6872C30.121 22.6478 30.2024 22.5902 30.2694 22.5181C30.3363 22.446 30.3873 22.3611 30.4191 22.2686C30.4509 22.1761 30.4629 22.0781 30.4542 21.9809L28.7787 4.01796V4.03857C28.7326 3.49873 28.8331 2.93829 27.522 2.46027C24.2046 1.23637 19.2325 6.74186 19.3205 7.19928Z" fill="#301B92"/>
<path fill-rule="evenodd" clip-rule="evenodd" d="M1.21612 22.7309H9.81979C10.198 22.7298 10.5711 22.6447 10.9112 22.4821C11.2514 22.3194 11.5498 22.0833 11.7843 21.7913L26.2857 3.51523C26.613 3.14353 27.0539 2.88616 27.5424 2.78172C27.9612 2.7199 27.8733 2.68694 28.2921 2.85177L26.2397 1.42595C25.1488 0.692241 23.8963 0.22406 22.5854 0.0599893C21.2745 -0.104082 19.9428 0.0406532 18.6999 0.482267C17.6444 0.840783 16.6516 1.33941 16.1867 1.9699L0.650636 21.5977C0.569512 21.7018 0.519564 21.8262 0.506417 21.9568C0.493271 22.0874 0.517449 22.219 0.576228 22.3368C0.635007 22.4546 0.726051 22.5539 0.839106 22.6235C0.95216 22.6931 1.08273 22.7303 1.21612 22.7309Z" fill="#12B4BA"/>
</g>
<defs>
<clipPath id="clip0_892_13410">
<rect width="151" height="36" fill="white" transform="translate(0.5)"/>
</clipPath>
</defs>
</svg>
