<svg id="Secciones" xmlns="http://www.w3.org/2000/svg" viewBox="0 0 282 93.6"><defs><style>.cls-1{fill-rule:evenodd;}.cls-2{fill:#68ae34;}.cls-3{fill:#fff;}</style></defs><path class="cls-1" d="M274.76,49.76,168.11,69.82A8.65,8.65,0,0,1,158,62.92L151,30.3a8.64,8.64,0,0,1,6.89-10.09L264.55.15a8.65,8.65,0,0,1,10.09,6.91l7,32.61A8.64,8.64,0,0,1,274.76,49.76Z"/><rect class="cls-2" x="157.81" y="28.13" width="124.19" height="65.03" rx="8.74"/><path class="cls-2" d="M9,63.65a8.93,8.93,0,0,0,2.24,5.83,7,7,0,0,0,5.33,2.16,7.81,7.81,0,0,0,3.89-1A4.32,4.32,0,0,0,22.58,68h9.23A14.17,14.17,0,0,1,26.3,75.7a16.18,16.18,0,0,1-9.36,2.68Q0,78.38,0,60.83a19.61,19.61,0,0,1,1.1-6.74,14.46,14.46,0,0,1,3.2-5.18,13.83,13.83,0,0,1,5.13-3.3,19.46,19.46,0,0,1,7-1.15q7.84,0,11.87,4.78t4,14.41Zm14.11-5.37a8.43,8.43,0,0,0-.65-3.11,6.5,6.5,0,0,0-1.55-2.23,6.31,6.31,0,0,0-2.2-1.31,7.93,7.93,0,0,0-2.55-.42,6.54,6.54,0,0,0-4.65,1.86,7.8,7.8,0,0,0-2.23,5.21Z"/><path d="M65.54,65.87A13.23,13.23,0,0,1,63.86,71a14,14,0,0,1-3.41,3.93,16.15,16.15,0,0,1-4.72,2.56,17.46,17.46,0,0,1-5.75.91,17.73,17.73,0,0,1-6.3-1.08A13,13,0,0,1,38.76,74a15.08,15.08,0,0,1-3.2-5.44A22.77,22.77,0,0,1,34.42,61a22,22,0,0,1,1.14-7.47,13.4,13.4,0,0,1,3.2-5.14,13.14,13.14,0,0,1,5-3,21.93,21.93,0,0,1,12.53-.13A14.24,14.24,0,0,1,61,47.8a12.06,12.06,0,0,1,3.21,3.93,13.29,13.29,0,0,1,1.37,5.11h-9a5.81,5.81,0,0,0-2.1-3.9,6.64,6.64,0,0,0-4.3-1.41,7.77,7.77,0,0,0-2.68.46,5.26,5.26,0,0,0-2.17,1.54,7.8,7.8,0,0,0-1.48,2.88,15.22,15.22,0,0,0-.55,4.42q0,5.31,2,7.86a5.78,5.78,0,0,0,4.61,2.55,7.29,7.29,0,0,0,4.48-1.37,5.41,5.41,0,0,0,2.13-4Z"/><path d="M89,77.53a12.71,12.71,0,0,1-.55-2.88,11.28,11.28,0,0,1-4.2,2.72,16.8,16.8,0,0,1-6.06,1q-5.85,0-8.57-2.45a8.23,8.23,0,0,1-2.72-6.39A11.19,11.19,0,0,1,68.09,64a8.41,8.41,0,0,1,3.24-3.24A15.82,15.82,0,0,1,76.25,59q2.85-.56,6.23-1A12.58,12.58,0,0,0,87,56.81a2.91,2.91,0,0,0-.37-4.92A8.44,8.44,0,0,0,82.48,51c-2.06,0-3.55.44-4.44,1.31a6,6,0,0,0-1.69,3.47H68a14,14,0,0,1,.86-4.58,8.75,8.75,0,0,1,2.55-3.6A12.12,12.12,0,0,1,76,45.28a24.79,24.79,0,0,1,6.88-.82,23.75,23.75,0,0,1,6.79.85,11.1,11.1,0,0,1,4.47,2.46,9.26,9.26,0,0,1,2.44,4,17.77,17.77,0,0,1,.76,5.41V77.53ZM88.4,61.75a4.84,4.84,0,0,1-2,1c-.88.26-2.14.54-3.79.85a13.24,13.24,0,0,0-5.3,1.83,3.79,3.79,0,0,0-1.45,3.21q0,3.6,4.34,3.6a9,9,0,0,0,3.2-.55A8.24,8.24,0,0,0,86,70.23,7.66,7.66,0,0,0,87.68,68a5.92,5.92,0,0,0,.65-2.71Z"/><path d="M100.93,77.53V45.31h8.4v3.87a10.43,10.43,0,0,1,2.31-2.56,10.16,10.16,0,0,1,2.48-1.41,10.32,10.32,0,0,1,2.58-.62c.87-.08,1.76-.13,2.68-.13h1.17v8.71a15.85,15.85,0,0,0-2.48-.2q-8.19,0-8.19,7.8V77.53Z"/><path d="M141.83,56.31h8.33v9.17a15.26,15.26,0,0,1-.79,4.88,11.41,11.41,0,0,1-2.48,4.13,11.8,11.8,0,0,1-4.27,2.84,16.34,16.34,0,0,1-6.16,1,17.07,17.07,0,0,1-6.34-1,11.86,11.86,0,0,1-4.3-2.81,10.49,10.49,0,0,1-2.44-4.13,16,16,0,0,1-.76-5V36.6h8.81v8.71h18.73v6H131.43V64.57a7.94,7.94,0,0,0,1.21,4.74,4.52,4.52,0,0,0,4,1.67,4.71,4.71,0,0,0,4-1.63,7.46,7.46,0,0,0,1.28-4.65Z"/><path class="cls-3" d="M172.62,36.76h16.09a31,31,0,0,1,6.27.6,12.62,12.62,0,0,1,4.92,2.07,8.72,8.72,0,0,1,3,4,12.18,12.18,0,0,1,.43,6.26,15.86,15.86,0,0,1-2.14,6.24,12.59,12.59,0,0,1-3.94,4A16,16,0,0,1,191.86,62a31.65,31.65,0,0,1-6.45.63h-7l-2.32,16.55h-9.54Zm7,18H186a12.92,12.92,0,0,0,2.5-.24,7.87,7.87,0,0,0,2.27-.81,5.48,5.48,0,0,0,1.77-1.56,5.23,5.23,0,0,0,.92-2.49A3.69,3.69,0,0,0,193,47a4.24,4.24,0,0,0-1.77-1.52,7.91,7.91,0,0,0-2.57-.69,26.94,26.94,0,0,0-2.79-.15H181Z"/><path class="cls-3" d="M220.81,75.55h-.12a10.27,10.27,0,0,1-4.53,3.36,15.39,15.39,0,0,1-5.5,1,13.06,13.06,0,0,1-3.91-.57,8.56,8.56,0,0,1-3.15-1.71,6.69,6.69,0,0,1-1.93-2.82,8,8,0,0,1-.3-3.9,9.21,9.21,0,0,1,2.9-5.84A15,15,0,0,1,209.83,62a27.57,27.57,0,0,1,6.73-1.17q3.51-.18,6.39-.18a4.15,4.15,0,0,0-1.22-3.8,5.56,5.56,0,0,0-3.92-1.41,10,10,0,0,0-4.25.93,14.23,14.23,0,0,0-3.69,2.54L205.71,54a19.82,19.82,0,0,1,6.45-3.51,23.14,23.14,0,0,1,7.24-1.17,17.88,17.88,0,0,1,6.52,1,7.91,7.91,0,0,1,3.76,2.91,9.79,9.79,0,0,1,1.5,4.71,28.93,28.93,0,0,1-.34,6.44l-2.08,14.81h-8.44Zm-1-9.11c-.69,0-1.56,0-2.6.09a14.19,14.19,0,0,0-3,.51,7.92,7.92,0,0,0-2.63,1.26,3.25,3.25,0,0,0-1.32,2.34,2.18,2.18,0,0,0,.19,1.4,3,3,0,0,0,.85,1,3.48,3.48,0,0,0,1.32.6,6.45,6.45,0,0,0,1.49.18,10,10,0,0,0,2.66-.36,9,9,0,0,0,2.39-1,6.23,6.23,0,0,0,1.8-1.67,5.18,5.18,0,0,0,.92-2.4l.24-1.92Z"/><path class="cls-3" d="M248.63,83.94c-.81,1.56-1.59,2.94-2.32,4.14a11.83,11.83,0,0,1-2.6,3A10.21,10.21,0,0,1,240.1,93a19.29,19.29,0,0,1-5.41.63A20.18,20.18,0,0,1,228,92.52l2.26-7.38a9.41,9.41,0,0,0,4.09.9,8.58,8.58,0,0,0,2.57-.33,5,5,0,0,0,1.78-1A6.57,6.57,0,0,0,240,83.23c.37-.6.78-1.3,1.22-2.1l.92-1.68-8.8-29.38h9.9l4.89,19.25h.13l9.29-19.25H267Z"/></svg>