<?xml version="1.0" encoding="UTF-8"?>
<svg id="Ecart_Banking" data-name="Ecart Banking" xmlns="http://www.w3.org/2000/svg" viewBox="0 0 95.52 22.15">
  <defs>
    <style>
      .cls-1 {
        fill: #51a33a;
      }

      .cls-2 {
        fill: #fff;
      }
    </style>
  </defs>
  <g>
    <path d="M21.07,13.77c-.07.58-.25,1.14-.54,1.64-.28.49-.66.91-1.1,1.26-.45.36-.97.63-1.51.82-.6.2-1.22.3-1.85.29-.69,0-1.38-.11-2.02-.35-.6-.22-1.14-.58-1.58-1.05-.46-.5-.81-1.1-1.03-1.75-.24-.7-.37-1.51-.37-2.43s.12-1.73.37-2.4c.21-.62.56-1.19,1.03-1.65.46-.44,1-.76,1.6-.96.68-.22,1.38-.33,2.09-.32.66,0,1.31.08,1.94.27.55.17,1.07.44,1.53.8.43.35.78.78,1.03,1.27.26.51.41,1.07.44,1.64h-2.9c-.07-.53-.3-.95-.68-1.25-.38-.3-.84-.45-1.38-.45-.29,0-.59.05-.86.15-.27.1-.51.27-.7.49-.22.27-.38.59-.48.93-.13.46-.19.94-.18,1.42,0,1.14.21,1.98.64,2.53.43.55.92.82,1.48.82.52.01,1.02-.14,1.44-.44.4-.29.63-.72.69-1.28h2.9ZM31.29,17.52v-6.55c0-.59-.07-1.17-.24-1.74-.15-.49-.42-.93-.79-1.28-.36-.34-.84-.61-1.44-.79-.6-.18-1.32-.27-2.18-.27-.87,0-1.61.09-2.21.26s-1.1.42-1.47.75c-.37.31-.65.71-.82,1.16-.17.47-.27.97-.28,1.47h2.68c.05-.42.24-.81.54-1.12.29-.28.76-.42,1.43-.42.56,0,1.01.09,1.34.28.33.19.5.45.5.79,0,.37-.13.63-.38.79-.25.16-.74.29-1.47.39-.72.1-1.39.21-2,.33-.55.1-1.09.29-1.58.56-.43.25-.79.61-1.04,1.04-.25.44-.38,1.03-.38,1.78,0,.84.29,1.53.88,2.05.58.53,1.5.79,2.76.79.66.01,1.32-.09,1.95-.32.51-.19.97-.49,1.35-.88.02.31.08.62.18.92h2.68ZM28.39,13.58c0,.3-.07.6-.21.87-.14.27-.33.51-.55.72-.24.21-.52.37-.82.48-.33.12-.68.18-1.03.18-.93,0-1.39-.39-1.39-1.16,0-.45.16-.79.46-1.03.31-.24.88-.44,1.7-.59.41-.07.82-.16,1.22-.27.24-.06.46-.18.64-.34l-.02,1.14ZM35.33,17.52v-5.39c0-1.67.88-2.5,2.63-2.5.27,0,.53.02.8.06v-2.8h-.38c-.3,0-.58.01-.86.04-.28.03-.56.1-.83.2-.29.11-.55.27-.8.45-.29.23-.54.51-.74.82v-1.24h-2.7v10.36h2.88ZM45.59,13.39c0,.65-.13,1.14-.41,1.49s-.7.53-1.28.53c-.59,0-1.02-.18-1.28-.54s-.39-.87-.39-1.53v-4.25h6.02v-1.94h-6.02v-2.8h-2.83v9.26c0,.54.08,1.08.24,1.6.16.5.43.95.79,1.33.39.4.86.71,1.38.91.56.22,1.24.34,2.04.34s1.43-.11,1.98-.33c.52-.2.99-.51,1.37-.91.36-.38.63-.83.8-1.33.17-.51.26-1.03.25-1.57v-2.95h-2.68v2.7Z"/>
    <path class="cls-1" d="M2.88,13.05c.04.79.28,1.41.72,1.87.43.46,1.01.69,1.71.69.44,0,.87-.1,1.25-.31.34-.18.59-.49.7-.85h2.97c-.34,1.07-.93,1.89-1.77,2.46s-1.84.86-3.01.86C1.82,17.79,0,15.91,0,12.15c-.01-.74.11-1.47.35-2.17.22-.62.57-1.19,1.03-1.66.46-.47,1.03-.84,1.65-1.06.65-.25,1.39-.37,2.23-.37,1.68,0,2.95.51,3.82,1.54s1.29,2.57,1.29,4.63H2.88ZM7.41,11.33c0-.34-.08-.68-.21-1-.11-.27-.28-.52-.5-.72-.2-.19-.45-.33-.71-.42-.26-.09-.54-.14-.82-.14-.56,0-1.1.21-1.5.6-.42.4-.66.96-.72,1.67h4.45Z"/>
  </g>
  <g>
    <path class="cls-1" d="M89.84,22.15h-37c-1.75,0-3.09-1.58-2.8-3.31l2.78-16.48c.23-1.36,1.41-2.36,2.8-2.36h37.06c1.76,0,3.09,1.58,2.79,3.32l-2.84,16.48c-.23,1.36-1.41,2.35-2.79,2.35Z"/>
    <g>
      <path class="cls-2" d="M53.83,16.03l2.08-11.8h5.81c2.03,0,3.06,1.01,3.06,2.63,0,1.4-.89,2.4-1.9,2.79.78.32,1.37.98,1.37,2.24,0,2.45-1.71,4.14-5.1,4.14h-5.31ZM57.11,10.84l-.55,3.18h3.13c1.28,0,2.13-.89,2.13-1.97,0-.96-.57-1.21-1.55-1.21h-3.16ZM57.93,6.27l-.46,2.56h3.11c1.14,0,1.76-.57,1.76-1.56,0-.8-.44-1-1.44-1h-2.97Z"/>
      <path class="cls-2" d="M69.55,16.03c-.02-.11-.04-.23-.04-.37,0-.12.02-.27.04-.41-.66.6-1.65,1.01-2.82,1.01-1.74,0-2.54-.8-2.54-1.99,0-2.59,1.83-3.16,4.62-3.54,1.58-.21,1.65-.52,1.65-1,0-.75-.5-.91-1.33-.91-1.05,0-1.56.52-1.79,1.3h-2.15c.36-1.81,1.56-3.07,4.37-3.07,2.33,0,3.22.87,3.22,2.45,0,.32-.04.64-.09,1l-.98,5.53h-2.15ZM70.14,11.74c-.27.23-.69.36-1.58.52-1.65.3-1.99.75-1.99,1.56,0,.55.43.78,1.03.78,1.12,0,2.17-.87,2.36-1.9l.18-.96Z"/>
      <path class="cls-2" d="M78.31,16.03l.94-5.3c.05-.28.07-.53.07-.75,0-.78-.39-.98-1.26-.98-1.21,0-1.92.68-2.15,2.01l-.89,5.01h-2.31l1.55-8.74h2.2l-.23,1.28c.71-.98,1.69-1.51,3.09-1.51s2.43.78,2.43,2.24c0,.21-.02.44-.05.68l-1.07,6.06h-2.33Z"/>
      <path class="cls-2" d="M87.09,16.03l-1.24-4-1.37,1.23-.5,2.77h-2.33l2.1-11.94h2.33l-1.1,6.36,3.36-3.16h2.9l-3.5,3.22,1.88,5.53h-2.52Z"/>
    </g>
  </g>
</svg>