<svg id="Capa_1" data-name="Capa 1" xmlns="http://www.w3.org/2000/svg" viewBox="0 0 306.61 106.73"><defs><style>.cls-1,.cls-2,.cls-3{fill:#002a60;}.cls-1,.cls-2{fill-rule:evenodd;}.cls-1{opacity:0.5;}</style></defs><title>Returns_Bco</title><g id="Logo_Grises" data-name="Logo Grises"><path class="cls-1" d="M174.22,97.87l-.55-.09h0a.83.83,0,0,1-.31-.11,1.27,1.27,0,0,1-.37-.31l-4-6.27,1.31-.86,1.44.27,1,.19,3.7,5.77Z"/><path class="cls-1" d="M163.87,83.44l7,13.9-4.09-.59a.64.64,0,0,1-.31-.19.69.69,0,0,1-.17-.22v0l0,0h0l-6.07-12Z"/><path class="cls-1" d="M183.47,99.08,180,98.62h0a.66.66,0,0,1-.28-.16.73.73,0,0,1-.22-.4v0l-3.11-12.49,3.55.58h-.05a.7.7,0,0,1,.3.17.66.66,0,0,1,.21.39v0Z"/><path class="cls-1" d="M190.3,100.13,187,99.61a.65.65,0,0,1-.33-.19.61.61,0,0,1-.18-.39h0l-1.85-19.65,2.39-.24,1.1.26a.63.63,0,0,1,.43.49l1.9,20.21Z"/><path class="cls-1" d="M196.41,76.71l-1.93-6.39,3.71.37a.67.67,0,0,1,.18.07.58.58,0,0,1,.21.26l1.54,5.11h0l.05.17a.29.29,0,0,1,0,.19.21.21,0,0,1-.21.07l-3.32-.84Z"/><path class="cls-2" d="M170.89,97.34l-3.62-.53v0l-.4-.06a.58.58,0,0,0,.25-.09.55.55,0,0,0,.2-.3l.64-6h0a.5.5,0,0,1,.17-.37.5.5,0,0,1,.27-.12h0l3.87.72v0h0l.39.07a.51.51,0,0,0-.26.09.44.44,0,0,0-.2.3l-.61,5.68a.7.7,0,0,1-.28.45A.74.74,0,0,1,170.89,97.34Z"/><path class="cls-2" d="M178.05,98.49l-4-.64-.33-.06-.11,0h0a.36.36,0,0,0,.31-.13.7.7,0,0,0,.17-.38L175,86a.59.59,0,0,1,.21-.37.64.64,0,0,1,.39-.16h0l3.85.66.31,0,.18,0h0a.42.42,0,0,0-.33.1.61.61,0,0,0-.19.34L178.54,98a.62.62,0,0,1-.22.37A.52.52,0,0,1,178.05,98.49Z"/><path class="cls-2" d="M184.09,99.15l-3.66-.47-.46-.06a.5.5,0,0,0,.31-.1.49.49,0,0,0,.22-.32l2.56-19v0a.89.89,0,0,1,.3-.55.8.8,0,0,1,.52-.19h0l3.52.82,0,.22,0-.22.76.18h0a.75.75,0,0,0-.53.08.66.66,0,0,0-.32.43l-2.54,18.83a.55.55,0,0,1-.21.3.54.54,0,0,1-.35.09h-.11Z"/><path class="cls-2" d="M187.47,99.68h0l-.44-.07-.12,0h0a.61.61,0,0,0,.41-.09.59.59,0,0,0,.26-.34l5.67-28.46a.67.67,0,0,1,.23-.33.58.58,0,0,1,.38-.11l-.39,0,.39,0,3.77.37.5.05h0a.58.58,0,0,0-.39.12.67.67,0,0,0-.27.39l.11-.57-5.84,29.31a.56.56,0,0,1-.21.27.39.39,0,0,1-.23.07"/><path class="cls-2" d="M168.64,101.7a3.83,3.83,0,1,1,2.82,4.63A3.84,3.84,0,0,1,168.64,101.7Z"/><path class="cls-2" d="M182.11,102.69a2.94,2.94,0,1,1,2.17,3.55A2.93,2.93,0,0,1,182.11,102.69Z"/><path class="cls-2" d="M161.19,86.17l.35.7h0a.78.78,0,0,1,0-.54h0a.55.55,0,0,1,.61-.36l6,1a.38.38,0,0,0,.43-.25l1-2.81a.38.38,0,0,0-.3-.51L160.26,82h-.17a.6.6,0,0,0-.6.6.83.83,0,0,0,.09.39l1.61,3.2"/><path class="cls-3" d="M210.11,85.7a5.65,5.65,0,0,1,5.12,3.13,5.76,5.76,0,0,1,.63,2.66v.24c-.12.71-.48,1.07-1.06,1.07h-7.89a3.13,3.13,0,0,0,1.72,1.8,4.38,4.38,0,0,0,1.55.32,4.76,4.76,0,0,0,2-.59h.33c.66.12,1,.47,1,1v.12c0,.82-1,1.38-3.12,1.65h-.3a5.64,5.64,0,0,1-4.93-2.88,5.77,5.77,0,0,1-.75-2.84,5.65,5.65,0,0,1,3-5A6.11,6.11,0,0,1,210.11,85.7Zm-3.39,4.93h6.9a3.87,3.87,0,0,0-.88-1.57,3.44,3.44,0,0,0-2.31-1.12H210a3.67,3.67,0,0,0-3.27,2.69Z"/><path class="cls-3" d="M218.33,85.72q1,.27,1,1v.16a4.86,4.86,0,0,1,3.41-1.15,5.54,5.54,0,0,1,4.18,2,5.42,5.42,0,0,1,1.33,3.47v5c0,.52-.34.85-1,1h-.11c-.68-.13-1-.48-1-1.06V91.66a3.44,3.44,0,0,0-2.33-3.59,4,4,0,0,0-1-.15h-.11a3.33,3.33,0,0,0-3,2,5.36,5.36,0,0,0-.27,2v4.13c0,.56-.34.9-1,1h-.08c-.57,0-.93-.36-1.06-1.07V86.92C217.26,86.12,217.65,85.72,218.33,85.72Z"/><path class="cls-3" d="M230,85.66h.07c.57,0,1,.5,1.37,1.49l3.1,6.37c2.28-4.85,3.52-7.37,3.71-7.58a1.23,1.23,0,0,1,.76-.28c.71.13,1.07.49,1.07,1.06v0a32.52,32.52,0,0,1-1.77,3.94l-3,6.08a1.45,1.45,0,0,1-.81.35h0c-.6,0-1.09-.57-1.49-1.71q-3.83-7.8-4.05-8.49v-.27C229.09,86,229.44,85.66,230,85.66Z"/><path class="cls-3" d="M242.81,83c.7.18,1,.51,1,1v.23c0,.56-.37.89-1.12,1-.55,0-.9-.37-1.07-1.1C241.81,83.32,242.19,83,242.81,83Zm0,2.7c.7.17,1,.5,1,1V96.1c0,.57-.35.91-1,1h-.06c-.58,0-.93-.36-1.07-1.07V86.85Q241.81,85.65,242.81,85.65Z"/><path class="cls-3" d="M254.38,95.93a4.79,4.79,0,0,1-3.4,1.2h-.3a5.71,5.71,0,0,1-4.85-2.91,6.26,6.26,0,0,1-.7-2.83,5.68,5.68,0,0,1,3.12-5,6.1,6.1,0,0,1,2.59-.62A5.75,5.75,0,0,1,256,88.88a6.59,6.59,0,0,1,.58,2.67v4.56c0,.56-.35.9-1,1h-.07a1.13,1.13,0,0,1-1.06-.84v-.36Zm-7.08-4.58v.11a3.48,3.48,0,0,0,2.17,3.25,3.44,3.44,0,0,0,1.21.25h.3a3.46,3.46,0,0,0,3-1.8,3.61,3.61,0,0,0,.42-1.61v-.16a3.46,3.46,0,0,0-2.06-3.18,3.57,3.57,0,0,0-1.47-.32h0a3.52,3.52,0,0,0-3.29,2.28A4.15,4.15,0,0,0,247.3,91.35Z"/><path class="cls-3" d="M260.94,93.61q1.37,0,1.74,1.59v.3A1.67,1.67,0,0,1,261.49,97a1.25,1.25,0,0,1-.55.11h0c-1,0-1.54-.59-1.74-1.76a1.7,1.7,0,0,1,1.24-1.65A1.2,1.2,0,0,1,260.94,93.61Z"/><path class="cls-3" d="M269.38,85.69a5.85,5.85,0,0,1,4,1.68,1.28,1.28,0,0,1,.18.61v.07c-.12.69-.48,1-1.06,1h0a3.31,3.31,0,0,1-1.44-.79,3.36,3.36,0,0,0-1.57-.4h-.23a3.43,3.43,0,0,0-3.18,2.21,4.23,4.23,0,0,0-.25,1.35,3.52,3.52,0,0,0,2.22,3.26,3.88,3.88,0,0,0,1.41.25A3.94,3.94,0,0,0,272,93.87l.43-.09h.16c.56,0,.9.34,1,1v.07c0,.68-.92,1.38-2.76,2.08a8.37,8.37,0,0,1-1.35.17h-.31a5.77,5.77,0,0,1-4.3-2.17,6.07,6.07,0,0,1-1.22-3.55,5.7,5.7,0,0,1,2.46-4.68A5.85,5.85,0,0,1,269.38,85.69Z"/><path class="cls-3" d="M279.89,85.77a5.75,5.75,0,0,1,5.68,5.68,5.62,5.62,0,0,1-3,5,5.69,5.69,0,0,1-2.55.66h-.32A5.75,5.75,0,0,1,275.43,95a6,6,0,0,1-1.22-3.53,5.62,5.62,0,0,1,2.45-4.63A5.72,5.72,0,0,1,279.89,85.77Zm-3.47,5.57v.19a3.35,3.35,0,0,0,1.9,3,3.18,3.18,0,0,0,1.46.35H280a3.41,3.41,0,0,0,3.12-2.12,3.66,3.66,0,0,0,.24-1.28v-.19a3.34,3.34,0,0,0-1.51-2.76,3.52,3.52,0,0,0-5.28,1.73A3.6,3.6,0,0,0,276.42,91.34Z"/><path class="cls-3" d="M287.72,85.9a1,1,0,0,1,1,.7,3.8,3.8,0,0,1,2.48-.7,4.25,4.25,0,0,1,3.46,1.6A4.23,4.23,0,0,1,297.21,86l.93-.13a4.57,4.57,0,0,1,4.63,4.49v5.77c0,.51-.34.84-1,1h-.09c-.68-.12-1-.47-1-1V90.47a2.36,2.36,0,0,0-1.76-2.33l-.49-.06H298a2.36,2.36,0,0,0-2.15,1.64,2.49,2.49,0,0,0-.09.59v5.77q-.19,1-1,1h-.07c-.68-.12-1-.46-1-1V91.36c0-1.23-.15-2-.45-2.27a2.35,2.35,0,0,0-1.94-1h-.12a2.33,2.33,0,0,0-2.28,1.75,4.89,4.89,0,0,0-.11,1.15v5.14c0,.55-.34.89-1,1h-.06c-.57,0-.92-.35-1.06-1v-9C286.67,86.3,287.05,85.9,287.72,85.9Z"/><path class="cls-3" d="M304.85,88.62V87.29h.58a1.17,1.17,0,0,1,.32,0,.34.34,0,0,1,.16.13.37.37,0,0,1,.06.21.37.37,0,0,1-.09.25.38.38,0,0,1-.27.12.61.61,0,0,1,.15.12,1.8,1.8,0,0,1,.16.21l.17.26h-.34l-.2-.29-.14-.19a.24.24,0,0,0-.09-.06h-.2v.55Zm.27-.77h.46a.24.24,0,0,0,.08-.06.17.17,0,0,0,0-.1.14.14,0,0,0,0-.11.12.12,0,0,0-.1,0h-.43Z"/><path class="cls-3" d="M306.61,88a1.22,1.22,0,1,1-1.22-1.19A1.2,1.2,0,0,1,306.61,88Zm-1.22,1a1,1,0,1,0-1-1,1,1,0,0,0,1,1Z"/></g><path class="cls-3" d="M131.28,89.08a5.87,5.87,0,0,1,2.15,2.32,6.89,6.89,0,0,1,.79,3.31,6.6,6.6,0,0,1-.84,3.31,6.23,6.23,0,0,1-2.33,2.34,6.58,6.58,0,0,1-3.29.85,6.44,6.44,0,0,1-3.26-.85A6.33,6.33,0,0,1,122.19,98a6.5,6.5,0,0,1-.85-3.31V84.05a1.18,1.18,0,0,1,.33-.87,1.22,1.22,0,0,1,.86-.32,1.12,1.12,0,0,1,1.19,1.19v6.31a5.83,5.83,0,0,1,4.51-2.13A5.63,5.63,0,0,1,131.28,89.08Zm-1.4,9.45a4.15,4.15,0,0,0,1.5-1.58,4.64,4.64,0,0,0,.55-2.24,4.58,4.58,0,0,0-.55-2.23,4.19,4.19,0,0,0-1.5-1.57,4.21,4.21,0,0,0-4.23,0,4.09,4.09,0,0,0-1.49,1.57,4.68,4.68,0,0,0-.53,2.23,4.75,4.75,0,0,0,.53,2.24,4.05,4.05,0,0,0,1.49,1.58,4.21,4.21,0,0,0,4.23,0Z"/><path class="cls-3" d="M147.57,89.36a1.57,1.57,0,0,1-.14.56L140.27,106a1,1,0,0,1-.91.73,1.52,1.52,0,0,1-.56-.14,1,1,0,0,1-.7-.92,1.19,1.19,0,0,1,.14-.56l2.34-5.26-5.26-10a1,1,0,0,1-.12-.49.9.9,0,0,1,.19-.56,1.13,1.13,0,0,1,1-.49,1.06,1.06,0,0,1,1,.65l4.27,8.51L145.37,89a1,1,0,0,1,.91-.68,1.47,1.47,0,0,1,.56.11A1,1,0,0,1,147.57,89.36Z"/><path class="cls-3" d="M83.67,20.38a20.76,20.76,0,0,0-10.94-2.81,22.55,22.55,0,0,0-11.41,2.91,20.58,20.58,0,0,0-7.9,8.15A24.17,24.17,0,0,0,50.6,40.31a23,23,0,0,0,3,11.67,21.21,21.21,0,0,0,8.34,8.09,24.79,24.79,0,0,0,19.8,1.52A22.58,22.58,0,0,0,88.6,58a4.27,4.27,0,0,0,1.83-3.51,5.11,5.11,0,0,0-5.18-4.87,5.45,5.45,0,0,0-3.44,1.15,12.68,12.68,0,0,1-3.65,1.83,13.54,13.54,0,0,1-4.29.76A13.34,13.34,0,0,1,65,50.43,11.65,11.65,0,0,1,61.1,44.5H88.23a5,5,0,0,0,3.57-1.38,4.75,4.75,0,0,0,1.45-3.5,25.56,25.56,0,0,0-2.44-11.36A18.73,18.73,0,0,0,83.67,20.38Zm-.78,15H61.21a11.14,11.14,0,0,1,11.52-8.18,9.69,9.69,0,0,1,7.11,2.62A11.26,11.26,0,0,1,82.89,35.35Z"/><path class="cls-3" d="M122.91,53.57A4.56,4.56,0,0,0,119.45,52h-2.6a3.61,3.61,0,0,1-2.95-1.5,6.28,6.28,0,0,1-1.33-4.15V29h5a5.14,5.14,0,0,0,3.62-1.32,4.5,4.5,0,0,0,1.48-3.4,4.68,4.68,0,0,0-1.48-3.56,5.14,5.14,0,0,0-3.62-1.32h-5V9.92a5.34,5.34,0,1,0-10.67,0V19.4h-2a5.14,5.14,0,0,0-3.62,1.32,4.68,4.68,0,0,0-1.48,3.56,4.5,4.5,0,0,0,1.48,3.4A5.14,5.14,0,0,0,99.9,29h2V46.34a17.65,17.65,0,0,0,1.93,8.26,15,15,0,0,0,5.38,5.88,14.1,14.1,0,0,0,7.64,2.18h1.37a6.32,6.32,0,0,0,4.23-1.43,4.94,4.94,0,0,0,1.8-3.9,5.46,5.46,0,0,0-1.34-3.76Z"/><path class="cls-3" d="M170.59,19.31a5.73,5.73,0,0,0-7.73,0,5.21,5.21,0,0,0-1.57,3.92V44.73a7.21,7.21,0,0,1-1.23,4.12,8.89,8.89,0,0,1-3.54,3A11.65,11.65,0,0,1,151.35,53a10.7,10.7,0,0,1-7.77-2.75c-1.89-1.81-2.85-4.58-2.85-8.25V23.21a5.41,5.41,0,1,0-10.82,0V42a23.62,23.62,0,0,0,2.55,11.29,17.68,17.68,0,0,0,7.17,7.29,21.09,21.09,0,0,0,10.2,2.48,20.75,20.75,0,0,0,7.73-1.45,18.94,18.94,0,0,0,4.11-2.24,5.08,5.08,0,0,0,1.17,1.75,5.25,5.25,0,0,0,3.86,1.55,5.18,5.18,0,0,0,3.91-1.57,5.3,5.3,0,0,0,1.5-3.84v-34a5.33,5.33,0,0,0-1.51-3.9Z"/><path class="cls-3" d="M211.84,18.81h0a15,15,0,0,0-7.05-1.4A18.67,18.67,0,0,0,197,19.08a18.17,18.17,0,0,0-3.73,2.26c-.61-2.23-2.4-3.47-5.1-3.47a5,5,0,0,0-5.34,5.34V57.33a5.21,5.21,0,0,0,1.46,4,5.35,5.35,0,0,0,3.88,1.38,5.27,5.27,0,0,0,3.95-1.45,5.37,5.37,0,0,0,1.38-3.88V35a6.56,6.56,0,0,1,2.75-5.58,13,13,0,0,1,8-2.22,29.19,29.19,0,0,1,4.66.51,7.94,7.94,0,0,0,1.44.18,4.44,4.44,0,0,0,4.51-3.52,4,4,0,0,0,.14-1.2C214.93,22,214.4,20.18,211.84,18.81Z"/><path class="cls-3" d="M252.39,20h0a21.87,21.87,0,0,0-17.92-1,19.19,19.19,0,0,0-4.09,2.23,5,5,0,0,0-1.15-1.78,5.73,5.73,0,0,0-7.74,0,5.21,5.21,0,0,0-1.57,3.91V57.33a5.49,5.49,0,0,0,9.33,3.84,5.34,5.34,0,0,0,1.49-3.84V35.8A7.2,7.2,0,0,1,232,31.69a8.73,8.73,0,0,1,3.54-3,11.54,11.54,0,0,1,5.17-1.14,10.71,10.71,0,0,1,7.77,2.75c1.89,1.8,2.85,4.58,2.85,8.25V57.33a5.41,5.41,0,1,0,10.82,0V38.55a23.62,23.62,0,0,0-2.55-11.29A17.68,17.68,0,0,0,252.39,20Z"/><path class="cls-3" d="M302.61,40.07c-2.54-2.18-6.62-3.81-12.48-5a35.46,35.46,0,0,1-5.91-1.64A5.24,5.24,0,0,1,282,32a2.74,2.74,0,0,1-.46-1.66c0-.57.16-1.3,1.44-2a10.89,10.89,0,0,1,5.05-1,14.85,14.85,0,0,1,4.71.64,10,10,0,0,1,3.51,2.17,6.72,6.72,0,0,0,4.61,1.84,5,5,0,0,0,3-.9l.07,0a4.52,4.52,0,0,0,1.85-3.54,5.38,5.38,0,0,0-1.33-3.4,16.69,16.69,0,0,0-6.83-4.88,24.92,24.92,0,0,0-9.46-1.71A23.65,23.65,0,0,0,280,19a15,15,0,0,0-6.44,4.33A10.94,10.94,0,0,0,271,30.61c0,7,5.35,11.52,15.89,13.55,3.55.68,6.06,1.49,7.46,2.41A3.06,3.06,0,0,1,296,49.24a2.85,2.85,0,0,1-1.67,2.59,11.77,11.77,0,0,1-6,1.23A14.74,14.74,0,0,1,282.77,52a10.2,10.2,0,0,1-3.8-2.4l-.06-.05a5.53,5.53,0,0,0-4-1.82,6.13,6.13,0,0,0-3.58,1.37,5.09,5.09,0,0,0-2.14,4.19,4.76,4.76,0,0,0,1.44,3.44,20.18,20.18,0,0,0,7.75,4.56h0A31,31,0,0,0,288.68,63a23.53,23.53,0,0,0,9.51-1.77,14.33,14.33,0,0,0,6.26-5.05,12.84,12.84,0,0,0,2.16-7.22A11.2,11.2,0,0,0,302.61,40.07Z"/><path class="cls-3" d="M36,36.87a18.29,18.29,0,0,0,8.14-9.06,1.89,1.89,0,0,0,.11-.25l0-.09a19.46,19.46,0,0,0,1.31-7.16c0-.21,0-.41,0-.62v0a18.3,18.3,0,0,0-3.64-11l-.1-.15-.14-.16-.06-.07-.39-.48L41,7.63l-.42-.47a24,24,0,0,0-14.77-7h-.1A19.88,19.88,0,0,0,16.42,1.4,20.82,20.82,0,0,0,8.61,6.62,4.25,4.25,0,0,0,6.27,4.23a4.39,4.39,0,0,0-4.47.51A4.73,4.73,0,0,0,.05,7.54a1.58,1.58,0,0,0,0,.38V18.86a1.41,1.41,0,0,0,.07.45l0,.12a1.18,1.18,0,0,1,.07.2,4.28,4.28,0,0,0,4,3.25c3.9.05,7.44.05,10.82,0A4.33,4.33,0,0,0,19,19a4.38,4.38,0,0,0-3.11-4.83,6,6,0,0,0-.79-.14A10.82,10.82,0,0,1,25.4,9.93a10.33,10.33,0,0,1,5.74,2.58,10.79,10.79,0,0,1,3.61,6,1.93,1.93,0,0,0,0,.24,11.58,11.58,0,0,1,.12,1.58A8.1,8.1,0,0,1,32,26.76a11,11,0,0,1-7.55,2.56h-14a5.14,5.14,0,0,0-5.18,5.19V57.18a5.43,5.43,0,0,0,5.49,5.48,5.3,5.3,0,0,0,3.95-1.6,5.4,5.4,0,0,0,1.53-3.88V39.69H25L37.71,60.05a5.37,5.37,0,0,0,4.71,2.61,5.21,5.21,0,0,0,3.86-1.47,5,5,0,0,0,1.48-3.63,6.17,6.17,0,0,0-1-3.32Z"/></svg>