<?xml version="1.0" encoding="UTF-8"?>
<!-- Generator: Adobe Illustrator 23.0.4, SVG Export Plug-In . SVG Version: 6.00 Build 0)  -->
<svg version="1.1" id="Capa_1" xmlns="http://www.w3.org/2000/svg" xmlns:xlink="http://www.w3.org/1999/xlink" x="0px" y="0px" viewBox="0 0 91.9 36.6" style="enable-background:new 0 0 91.9 36.6;" xml:space="preserve">
<style type="text/css">
	.st0{opacity:0.5;fill-rule:evenodd;clip-rule:evenodd;fill:#000000;}
	.st1{fill-rule:evenodd;clip-rule:evenodd;fill:#000000;}
	.st2{fill:#000000;}
</style>
<g>
	<g>
		<g id="Logo_Grises_2_">
			<g>
				<path class="st0" d="M26.2,32.2l-0.3,0c0,0,0,0,0,0s0,0,0,0c0,0-0.1,0-0.2-0.1c-0.1,0-0.1-0.1-0.2-0.2l-2-3.1l0.7-0.4l0.7,0.1      l0.5,0.1l1.8,2.9L26.2,32.2z"/>
				<path class="st0" d="M21.1,25.1l3.5,6.9l-2-0.3c-0.1,0-0.1,0-0.2-0.1c0,0-0.1-0.1-0.1-0.1c0,0,0,0,0,0l0,0l0,0l-3-6L21.1,25.1z"/>
				<path class="st0" d="M30.8,32.8l-1.7-0.2h0c0,0,0,0,0,0h0l0,0c0,0-0.1,0-0.1-0.1c-0.1-0.1-0.1-0.1-0.1-0.2l0,0l-1.5-6.2l1.8,0.3      l0,0c0.1,0,0.1,0,0.2,0.1c0.1,0.1,0.1,0.1,0.1,0.2l0,0L30.8,32.8z"/>
				<path class="st0" d="M34.2,33.3l-1.6-0.3c-0.1,0-0.1,0-0.2-0.1c-0.1-0.1-0.1-0.1-0.1-0.2v0l-0.9-9.7l1.2-0.1l0.5,0.1      c0,0,0.1,0,0.1,0.1c0,0,0.1,0.1,0.1,0.2L34.2,33.3L34.2,33.3z"/>
				<path class="st0" d="M37.2,21.7l-1-3.2l1.8,0.2c0,0,0.1,0,0.1,0c0,0,0.1,0.1,0.1,0.1l0.8,2.5l0,0c0,0,0,0,0,0l0,0.1      c0,0,0,0.1,0,0.1c0,0-0.1,0-0.1,0l-1.6-0.4L37.2,21.7z"/>
				<path class="st1" d="M24.6,32l-1.8-0.3l0,0l0,0l-0.2,0c0,0,0.1,0,0.1,0c0.1,0,0.1-0.1,0.1-0.1l0.3-3v0c0-0.1,0-0.1,0.1-0.2      c0,0,0.1-0.1,0.1-0.1c0,0,0,0,0,0l1.9,0.4v0v0l0,0l0.2,0c0,0-0.1,0-0.1,0c-0.1,0-0.1,0.1-0.1,0.1L25,31.7c0,0.1-0.1,0.2-0.1,0.2      C24.7,31.9,24.7,32,24.6,32z"/>
				<path class="st1" d="M28.1,32.5l-2-0.3l-0.2,0l-0.1,0h0c0.1,0,0.1,0,0.2-0.1c0,0,0.1-0.1,0.1-0.2l0.4-5.6c0-0.1,0-0.1,0.1-0.2      c0.1,0,0.1-0.1,0.2-0.1l0,0c0,0,0,0,0,0l1.9,0.3l0.2,0l0.1,0h0c-0.1,0-0.1,0-0.2,0.1c0,0-0.1,0.1-0.1,0.2l-0.4,5.6      c0,0.1-0.1,0.1-0.1,0.2C28.2,32.5,28.2,32.5,28.1,32.5z"/>
				<path class="st1" d="M31.1,32.9l-1.8-0.2l-0.2,0c0.1,0,0.1,0,0.2,0c0.1,0,0.1-0.1,0.1-0.2l1.3-9.4v0c0-0.1,0.1-0.2,0.1-0.3      c0.1-0.1,0.2-0.1,0.3-0.1h0l0,0l0,0c0,0,0,0,0,0c0,0,0,0,0,0l1.7,0.4l0,0.1l0-0.1l0.4,0.1h0c-0.1,0-0.2,0-0.3,0      c-0.1,0-0.1,0.1-0.2,0.2l-1.3,9.3c0,0.1,0,0.1-0.1,0.1C31.3,32.8,31.2,32.9,31.1,32.9L31.1,32.9L31.1,32.9L31.1,32.9z"/>
				<path class="st1" d="M32.8,33.1L32.8,33.1L32.8,33.1l-0.2,0l-0.1,0c0,0,0,0,0,0C32.6,33.1,32.7,33.1,32.8,33.1      c0-0.1,0-0.2,0.1-0.3l2.8-14.1c0-0.1,0.1-0.1,0.1-0.2c0.1,0,0.1-0.1,0.2-0.1l-0.2,0l0.2,0l1.9,0.2l0.2,0v0l0,0c0,0,0,0,0,0      c-0.1,0-0.1,0-0.2,0.1c-0.1,0-0.1,0.1-0.1,0.2l0.1-0.3l-2.9,14.5c0,0.1-0.1,0.1-0.1,0.1c0,0-0.1,0-0.1,0"/>
				<path class="st1" d="M23.5,34.1c0.2-1,1.3-1.6,2.3-1.4c1,0.2,1.6,1.3,1.4,2.3c-0.2,1-1.3,1.6-2.3,1.4      C23.8,36.2,23.2,35.1,23.5,34.1z"/>
				<path class="st1" d="M30.1,34.6c0.2-0.8,1-1.3,1.8-1.1c0.8,0.2,1.3,1,1.1,1.8c-0.2,0.8-1,1.3-1.8,1.1      C30.4,36.2,29.9,35.4,30.1,34.6z"/>
				<path class="st1" d="M19.8,26.4l0.2,0.3l0,0c0-0.1,0-0.2,0-0.3c0,0,0,0,0,0c0-0.1,0.2-0.2,0.3-0.2l3,0.5c0.1,0,0.2,0,0.2-0.1      l0.5-1.4c0-0.1,0-0.2-0.2-0.3l-4.4-0.7c0,0,0,0,0,0c0,0,0,0-0.1,0l0,0l0,0c0,0,0,0,0,0c-0.2,0-0.3,0.1-0.3,0.3      c0,0.1,0,0.1,0,0.2L19.8,26.4"/>
			</g>
			<g>
				<path class="st2" d="M44,26.2c1.1,0,1.9,0.5,2.5,1.6c0.2,0.4,0.3,0.8,0.3,1.3v0.1c-0.1,0.4-0.2,0.5-0.5,0.5h-3.9      c0.1,0.3,0.4,0.6,0.9,0.9c0.3,0.1,0.5,0.2,0.8,0.2c0.3,0,0.6-0.1,1-0.3h0.2c0.3,0.1,0.5,0.2,0.5,0.5V31c0,0.4-0.5,0.7-1.6,0.8      H44c-1,0-1.8-0.5-2.4-1.4c-0.2-0.4-0.4-0.9-0.4-1.4c0-1,0.5-1.9,1.5-2.5C43.2,26.3,43.6,26.2,44,26.2z M42.3,28.6h3.4      c0-0.1-0.1-0.4-0.4-0.8c-0.4-0.4-0.8-0.6-1.1-0.6H44c-0.6,0-1,0.3-1.4,0.8C42.4,28.4,42.4,28.5,42.3,28.6z"/>
				<path class="st2" d="M48.1,26.2c0.3,0.1,0.5,0.3,0.5,0.5v0.1c0.4-0.4,1-0.6,1.7-0.6c0.8,0,1.5,0.3,2.1,1      c0.4,0.5,0.7,1.1,0.7,1.7v2.5c0,0.3-0.2,0.4-0.5,0.5h-0.1c-0.3-0.1-0.5-0.2-0.5-0.5v-2.2c0-0.9-0.4-1.5-1.2-1.8      c-0.2,0-0.4-0.1-0.5-0.1h-0.1c-0.6,0-1.1,0.3-1.5,1c-0.1,0.2-0.1,0.5-0.1,1v2c0,0.3-0.2,0.4-0.5,0.5h0c-0.3,0-0.5-0.2-0.5-0.5      v-4.5C47.6,26.4,47.8,26.2,48.1,26.2z"/>
				<path class="st2" d="M53.9,26.2L53.9,26.2c0.3,0,0.5,0.2,0.7,0.7l1.5,3.2c1.1-2.4,1.7-3.7,1.8-3.8c0.1-0.1,0.3-0.1,0.4-0.1      c0.4,0.1,0.5,0.2,0.5,0.5v0c0,0.1-0.3,0.7-0.9,2l-1.5,3c-0.2,0.1-0.3,0.2-0.4,0.2h0c-0.3,0-0.5-0.3-0.7-0.8      c-1.3-2.6-1.9-4-2-4.2v-0.1C53.4,26.3,53.6,26.2,53.9,26.2z"/>
				<path class="st2" d="M60.2,24.8c0.3,0.1,0.5,0.3,0.5,0.5v0.1c0,0.3-0.2,0.4-0.6,0.5c-0.3,0-0.4-0.2-0.5-0.5      C59.7,25,59.9,24.8,60.2,24.8z M60.2,26.2c0.3,0.1,0.5,0.3,0.5,0.5v4.7c0,0.3-0.2,0.5-0.5,0.5h0c-0.3,0-0.5-0.2-0.5-0.5v-4.6      C59.7,26.4,59.9,26.2,60.2,26.2z"/>
				<path class="st2" d="M66,31.3c-0.4,0.4-1,0.6-1.7,0.6h-0.2c-1,0-1.8-0.5-2.4-1.4c-0.2-0.5-0.4-0.9-0.4-1.4      c0-1.1,0.5-1.9,1.5-2.5c0.4-0.2,0.9-0.3,1.3-0.3c1.1,0,1.9,0.5,2.5,1.6c0.2,0.4,0.3,0.9,0.3,1.3v2.3c0,0.3-0.2,0.4-0.5,0.5h0      c-0.2,0-0.4-0.1-0.5-0.4v-0.1L66,31.3z M62.5,29L62.5,29c0,0.8,0.4,1.3,1.1,1.7c0.2,0.1,0.4,0.1,0.6,0.1h0.2      c0.6,0,1.1-0.3,1.5-0.9c0.1-0.3,0.2-0.5,0.2-0.8V29c0-0.7-0.3-1.2-1-1.6c-0.2-0.1-0.5-0.2-0.7-0.2h0c-0.7,0-1.3,0.4-1.6,1.1      C62.5,28.6,62.5,28.8,62.5,29z"/>
				<path class="st2" d="M69.2,30.1c0.4,0,0.7,0.3,0.9,0.8V31c0,0.3-0.2,0.6-0.6,0.8c-0.1,0-0.2,0.1-0.3,0.1h0      c-0.5,0-0.8-0.3-0.9-0.9c0-0.4,0.2-0.7,0.6-0.8C69,30.1,69.1,30.1,69.2,30.1z"/>
				<path class="st2" d="M73.4,26.2c0.7,0,1.4,0.3,2,0.8c0.1,0.1,0.1,0.2,0.1,0.3v0c-0.1,0.3-0.2,0.5-0.5,0.5h0      c-0.1,0-0.4-0.1-0.7-0.4c-0.3-0.1-0.5-0.2-0.8-0.2h-0.1c-0.7,0-1.2,0.4-1.6,1.1c-0.1,0.2-0.1,0.5-0.1,0.7c0,0.7,0.4,1.2,1.1,1.6      c0.2,0.1,0.4,0.1,0.7,0.1c0.4,0,0.8-0.2,1.3-0.5l0.2,0H75c0.3,0,0.4,0.2,0.5,0.5v0c0,0.3-0.5,0.7-1.4,1      c-0.3,0.1-0.5,0.1-0.7,0.1h-0.2c-0.8,0-1.5-0.4-2.1-1.1c-0.4-0.6-0.6-1.2-0.6-1.8c0-0.9,0.4-1.7,1.2-2.3      C72.3,26.4,72.9,26.2,73.4,26.2z"/>
				<path class="st2" d="M78.6,26.2c0.7,0,1.4,0.3,2,0.8c0.6,0.6,0.8,1.3,0.8,2c0,1.1-0.5,1.9-1.5,2.5c-0.4,0.2-0.9,0.3-1.3,0.3      h-0.2c-0.8,0-1.5-0.4-2.1-1.1c-0.4-0.6-0.6-1.1-0.6-1.8c0-0.9,0.4-1.7,1.2-2.3C77.5,26.4,78.1,26.2,78.6,26.2z M76.9,29L76.9,29      c0,0.7,0.3,1.3,0.9,1.6c0.2,0.1,0.5,0.2,0.7,0.2h0.1c0.7,0,1.2-0.4,1.5-1.1c0.1-0.2,0.1-0.4,0.1-0.6V29c0-0.5-0.2-1-0.7-1.4      c-0.3-0.2-0.6-0.3-1-0.3c-0.7,0-1.3,0.4-1.6,1.2C76.9,28.7,76.9,28.8,76.9,29z"/>
				<path class="st2" d="M82.5,26.3c0.3,0,0.4,0.1,0.5,0.3c0.3-0.2,0.7-0.3,1.2-0.3c0.7,0,1.3,0.3,1.7,0.8c0.1-0.3,0.6-0.5,1.3-0.7      l0.5-0.1c0.9,0,1.5,0.4,2,1.2c0.2,0.3,0.3,0.7,0.3,1v2.9c0,0.3-0.2,0.4-0.5,0.5h0c-0.3-0.1-0.5-0.2-0.5-0.5v-2.8      c0-0.6-0.3-0.9-0.9-1.2l-0.2,0h-0.2c-0.5,0-0.8,0.3-1.1,0.8c0,0.1,0,0.2,0,0.3v2.9c-0.1,0.3-0.2,0.5-0.5,0.5h0      c-0.3-0.1-0.5-0.2-0.5-0.5V29c0-0.6-0.1-1-0.2-1.1c-0.3-0.3-0.6-0.5-1-0.5h-0.1c-0.5,0-0.9,0.3-1.1,0.9c0,0.1-0.1,0.3-0.1,0.6      v2.5c0,0.3-0.2,0.4-0.5,0.5h0c-0.3,0-0.5-0.2-0.5-0.5v-4.5C82,26.5,82.2,26.3,82.5,26.3z"/>
			</g>
			<g>
				<g>
					<path class="st2" d="M91,27.6V27h0.3c0.1,0,0.1,0,0.2,0c0,0,0.1,0,0.1,0.1c0,0,0,0.1,0,0.1c0,0,0,0.1,0,0.1       c0,0-0.1,0.1-0.1,0.1c0,0,0.1,0,0.1,0.1c0,0,0,0.1,0.1,0.1l0.1,0.1h-0.2l-0.1-0.1c0-0.1-0.1-0.1-0.1-0.1c0,0,0,0,0,0       c0,0,0,0-0.1,0h0v0.3H91z M91.1,27.3h0.1c0.1,0,0.1,0,0.1,0c0,0,0,0,0,0c0,0,0,0,0,0c0,0,0,0,0-0.1c0,0,0,0-0.1,0       c0,0,0,0-0.1,0h-0.1V27.3z"/>
				</g>
				<path class="st2" d="M91.9,27.3c0,0.3-0.3,0.6-0.6,0.6c-0.3,0-0.6-0.3-0.6-0.6c0-0.3,0.3-0.6,0.6-0.6      C91.6,26.7,91.9,27,91.9,27.3z M91.3,27.8c0.3,0,0.5-0.2,0.5-0.5c0-0.3-0.2-0.5-0.5-0.5c-0.3,0-0.5,0.2-0.5,0.5      C90.8,27.6,91,27.8,91.3,27.8L91.3,27.8z"/>
			</g>
		</g>
		<g>
			<path class="st2" d="M4.9,27.9C5.4,28.1,5.7,28.5,6,29c0.3,0.5,0.4,1,0.4,1.6c0,0.6-0.1,1.1-0.4,1.6c-0.3,0.5-0.7,0.9-1.2,1.2     c-0.5,0.3-1,0.4-1.6,0.4c-0.6,0-1.1-0.1-1.6-0.4c-0.5-0.3-0.9-0.7-1.1-1.2c-0.3-0.5-0.4-1-0.4-1.6v-5.3c0-0.2,0.1-0.3,0.2-0.4     c0.1-0.1,0.3-0.2,0.4-0.2c0.2,0,0.3,0.1,0.4,0.2c0.1,0.1,0.2,0.3,0.2,0.4v3.1c0.3-0.3,0.6-0.6,1-0.8c0.4-0.2,0.8-0.3,1.3-0.3     C4,27.4,4.5,27.6,4.9,27.9z M4.2,32.6c0.3-0.2,0.6-0.5,0.7-0.8c0.2-0.3,0.3-0.7,0.3-1.1c0-0.4-0.1-0.8-0.3-1.1     c-0.2-0.3-0.4-0.6-0.7-0.8c-0.3-0.2-0.7-0.3-1-0.3c-0.4,0-0.7,0.1-1,0.3s-0.6,0.4-0.7,0.8c-0.2,0.3-0.3,0.7-0.3,1.1     c0,0.4,0.1,0.8,0.3,1.1c0.2,0.3,0.4,0.6,0.7,0.8c0.3,0.2,0.7,0.3,1,0.3C3.6,32.8,3.9,32.7,4.2,32.6z"/>
			<path class="st2" d="M13,28c0,0.1,0,0.2-0.1,0.3l-3.5,8c-0.1,0.2-0.2,0.4-0.5,0.4c-0.1,0-0.2,0-0.3-0.1c-0.2-0.1-0.3-0.3-0.3-0.5     c0-0.1,0-0.2,0.1-0.3l1.2-2.6l-2.6-5c0-0.1-0.1-0.2-0.1-0.2c0-0.1,0-0.2,0.1-0.3c0.1-0.1,0.1-0.2,0.2-0.2c0.1,0,0.1,0,0.2,0     c0.2,0,0.4,0.1,0.5,0.3l2.1,4.2l1.9-4.2c0.1-0.2,0.3-0.3,0.5-0.3c0.1,0,0.2,0,0.3,0.1C12.9,27.6,13,27.8,13,28z"/>
		</g>
	</g>
	<g>
		<path class="st2" d="M4.1,2.4c-0.4,0.4-0.6,1-0.6,1.7v0.5h1.8c0.2,0,0.4,0.1,0.6,0.2C6,4.9,6.1,5.1,6.1,5.3c0,0.2-0.1,0.4-0.2,0.5    C5.7,6,5.5,6,5.3,6H3.5v6.8c0,0.3-0.1,0.5-0.2,0.6c-0.2,0.2-0.4,0.2-0.7,0.2c-0.2,0-0.4-0.1-0.6-0.2c-0.2-0.2-0.3-0.4-0.3-0.6V6H1    C0.7,6,0.5,6,0.4,5.8C0.2,5.7,0.2,5.5,0.2,5.3c0-0.2,0.1-0.4,0.2-0.6C0.5,4.6,0.7,4.5,1,4.5h0.7V4.2c0-0.8,0.2-1.5,0.5-2.2    C2.6,1.5,3,1,3.6,0.6c0.6-0.3,1.3-0.5,2-0.5c0.3,0,0.5,0.1,0.6,0.2c0.2,0.2,0.3,0.3,0.3,0.6c0,0.2-0.1,0.4-0.3,0.6    C6.1,1.6,5.9,1.7,5.7,1.7C5,1.7,4.5,1.9,4.1,2.4z"/>
		<path class="st2" d="M16.4,4.4c0.2,0.2,0.2,0.4,0.2,0.6v7.7c0,0.3-0.1,0.5-0.2,0.6c-0.2,0.2-0.4,0.3-0.6,0.3    c-0.3,0-0.5-0.1-0.6-0.3c-0.2-0.2-0.3-0.4-0.3-0.6v-0.2c-0.4,0.4-0.8,0.7-1.3,0.9c-0.5,0.2-1.1,0.3-1.6,0.3    c-0.8,0-1.5-0.2-2.2-0.5c-0.6-0.3-1.1-0.9-1.5-1.5c-0.4-0.7-0.5-1.5-0.5-2.4V5.1c0-0.3,0.1-0.5,0.3-0.6c0.2-0.2,0.4-0.3,0.6-0.3    c0.3,0,0.5,0.1,0.6,0.3c0.2,0.2,0.3,0.4,0.3,0.6v4.3c0,0.9,0.3,1.6,0.8,2.1c0.5,0.5,1.2,0.7,2,0.7c0.5,0,0.9-0.1,1.3-0.3    c0.4-0.2,0.7-0.5,0.9-0.8c0.2-0.3,0.3-0.7,0.3-1.1V5.1c0-0.3,0.1-0.5,0.3-0.6c0.2-0.2,0.4-0.2,0.6-0.2C16,4.2,16.2,4.2,16.4,4.4z"/>
		<path class="st2" d="M20.7,13.3c-0.4-0.3-0.7-0.7-0.9-1.1c-0.2-0.5-0.3-1-0.3-1.7V1c0-0.3,0.1-0.5,0.2-0.6    c0.2-0.2,0.4-0.2,0.6-0.2c0.3,0,0.5,0.1,0.6,0.2c0.2,0.2,0.2,0.4,0.2,0.6v9.5c0,0.4,0.1,0.8,0.2,1.1c0.2,0.3,0.4,0.4,0.6,0.4h0.4    c0.2,0,0.4,0.1,0.6,0.2c0.1,0.2,0.2,0.4,0.2,0.6c0,0.3-0.1,0.5-0.3,0.6c-0.2,0.2-0.5,0.2-0.9,0.2h0C21.5,13.7,21.1,13.5,20.7,13.3    z"/>
		<path class="st2" d="M29.3,4.7c0.2,0.1,0.2,0.3,0.2,0.6c0,0.2-0.1,0.4-0.2,0.5C29.2,6,29,6,28.7,6h-1.8v6.8c0,0.2-0.1,0.5-0.3,0.6    c-0.2,0.2-0.4,0.3-0.6,0.3c-0.3,0-0.5-0.1-0.6-0.3c-0.2-0.2-0.3-0.4-0.3-0.6V6h-0.7C24.2,6,24,6,23.8,5.8    c-0.2-0.1-0.2-0.3-0.2-0.5c0-0.2,0.1-0.4,0.2-0.6c0.2-0.1,0.3-0.2,0.6-0.2h0.7V4.2c0-1.3,0.4-2.4,1.2-3.1C27.2,0.4,28.4,0,30.1,0    c0.8,0,1.5,0.1,2,0.4c0.5,0.3,0.8,0.6,0.8,1.1c0,0.5-0.3,0.8-0.9,0.8c-0.2,0-0.4,0-0.6-0.1C31.2,2,31,1.9,30.8,1.8    c-0.3-0.2-0.5-0.3-0.7-0.4c-0.2-0.1-0.4-0.1-0.7-0.1c-1.7,0-2.5,1-2.5,3v0.3h1.8C29,4.5,29.2,4.6,29.3,4.7z M32.5,4.4    c0.2,0.2,0.2,0.4,0.2,0.6v7.7c0,0.3-0.1,0.5-0.2,0.6c-0.2,0.2-0.4,0.3-0.6,0.3c-0.3,0-0.5-0.1-0.6-0.3c-0.2-0.2-0.3-0.4-0.3-0.6    V5.1c0-0.3,0.1-0.5,0.3-0.6c0.2-0.2,0.4-0.2,0.6-0.2C32.1,4.2,32.3,4.3,32.5,4.4z"/>
		<path class="st2" d="M36.9,13.3c-0.4-0.3-0.7-0.7-0.9-1.1c-0.2-0.5-0.3-1-0.3-1.7V1c0-0.3,0.1-0.5,0.2-0.6    c0.2-0.2,0.4-0.2,0.6-0.2c0.3,0,0.5,0.1,0.6,0.2c0.2,0.2,0.2,0.4,0.2,0.6v9.5c0,0.4,0.1,0.8,0.2,1.1c0.2,0.3,0.4,0.4,0.6,0.4h0.4    c0.2,0,0.4,0.1,0.6,0.2c0.1,0.2,0.2,0.4,0.2,0.6c0,0.3-0.1,0.5-0.3,0.6c-0.2,0.2-0.5,0.2-0.9,0.2h0C37.7,13.7,37.3,13.5,36.9,13.3    z"/>
		<path class="st2" d="M42.1,13.3c-0.4-0.3-0.7-0.7-0.9-1.1c-0.2-0.5-0.3-1-0.3-1.7V1c0-0.3,0.1-0.5,0.2-0.6    c0.2-0.2,0.4-0.2,0.6-0.2c0.3,0,0.5,0.1,0.6,0.2c0.2,0.2,0.2,0.4,0.2,0.6v9.5c0,0.4,0.1,0.8,0.2,1.1c0.2,0.3,0.4,0.4,0.6,0.4h0.4    c0.2,0,0.4,0.1,0.6,0.2c0.1,0.2,0.2,0.4,0.2,0.6c0,0.3-0.1,0.5-0.3,0.6c-0.2,0.2-0.5,0.2-0.9,0.2h0C42.9,13.7,42.5,13.5,42.1,13.3    z"/>
		<path class="st2" d="M58.8,5.1c0.6,0.7,0.9,1.6,0.9,2.8v5c0,0.3-0.1,0.5-0.2,0.6c-0.2,0.2-0.4,0.3-0.6,0.3c-0.3,0-0.5-0.1-0.6-0.3    c-0.2-0.2-0.3-0.4-0.3-0.6v-5c0-0.7-0.2-1.2-0.5-1.6c-0.4-0.4-0.8-0.5-1.4-0.5c-0.6,0-1.1,0.2-1.5,0.6c-0.4,0.4-0.6,0.9-0.6,1.6    v4.9c0,0.3-0.1,0.5-0.2,0.6c-0.2,0.2-0.4,0.3-0.6,0.3c-0.3,0-0.5-0.1-0.6-0.3c-0.2-0.2-0.3-0.4-0.3-0.6v-5c0-0.7-0.2-1.2-0.5-1.6    c-0.4-0.4-0.8-0.5-1.4-0.5c-0.6,0-1.1,0.2-1.5,0.6c-0.4,0.4-0.6,0.9-0.6,1.6v4.9c0,0.3-0.1,0.5-0.2,0.6c-0.2,0.2-0.4,0.3-0.6,0.3    c-0.3,0-0.5-0.1-0.6-0.3c-0.2-0.2-0.3-0.4-0.3-0.6V5.1c0-0.3,0.1-0.5,0.3-0.6c0.2-0.2,0.4-0.2,0.6-0.2c0.3,0,0.5,0.1,0.6,0.2    c0.2,0.2,0.2,0.4,0.3,0.6c0.3-0.3,0.7-0.5,1.1-0.7c0.4-0.2,0.9-0.3,1.4-0.3c0.6,0,1.1,0.1,1.6,0.4c0.5,0.2,0.9,0.6,1.2,1    c0.3-0.4,0.8-0.8,1.3-1c0.5-0.2,1.1-0.4,1.7-0.4C57.4,4.1,58.2,4.4,58.8,5.1z"/>
		<path class="st2" d="M71,9.3c-0.2,0.1-0.3,0.2-0.6,0.2h-6.6c0.1,0.8,0.5,1.5,1.1,2c0.6,0.5,1.4,0.7,2.2,0.7c0.3,0,0.7-0.1,1.1-0.2    c0.4-0.1,0.7-0.3,0.9-0.5c0.2-0.1,0.4-0.2,0.6-0.2c0.2,0,0.4,0.1,0.5,0.2c0.2,0.2,0.3,0.4,0.3,0.6c0,0.2-0.1,0.4-0.3,0.5    c-0.4,0.3-0.9,0.6-1.5,0.8c-0.6,0.2-1.1,0.3-1.7,0.3c-0.9,0-1.8-0.2-2.6-0.6c-0.8-0.4-1.3-1-1.8-1.7c-0.4-0.7-0.6-1.6-0.6-2.5    c0-0.9,0.2-1.8,0.6-2.5c0.4-0.7,1-1.3,1.7-1.7c0.7-0.4,1.5-0.6,2.4-0.6c0.9,0,1.7,0.2,2.3,0.6c0.6,0.4,1.1,0.9,1.5,1.6    c0.3,0.7,0.5,1.5,0.5,2.4C71.2,9,71.1,9.2,71,9.3z M64.8,6.3c-0.5,0.5-0.9,1.1-1,1.9h5.8c-0.1-0.8-0.4-1.4-0.9-1.9    c-0.5-0.5-1.1-0.7-1.9-0.7C66,5.6,65.3,5.8,64.8,6.3z"/>
		<path class="st2" d="M80.3,4.6c0.6,0.3,1.1,0.9,1.5,1.5c0.4,0.7,0.5,1.5,0.5,2.4v4.3c0,0.3-0.1,0.5-0.3,0.6    c-0.2,0.2-0.4,0.3-0.6,0.3c-0.3,0-0.5-0.1-0.6-0.3c-0.2-0.2-0.3-0.4-0.3-0.6V8.5c0-0.9-0.3-1.6-0.8-2.1c-0.5-0.5-1.2-0.7-2-0.7    c-0.5,0-0.9,0.1-1.3,0.3c-0.4,0.2-0.7,0.5-0.9,0.8c-0.2,0.3-0.3,0.7-0.3,1.1v4.9c0,0.3-0.1,0.5-0.2,0.6c-0.2,0.2-0.4,0.3-0.6,0.3    c-0.3,0-0.5-0.1-0.6-0.3c-0.2-0.2-0.3-0.4-0.3-0.6V5.1c0-0.3,0.1-0.5,0.3-0.6c0.2-0.2,0.4-0.2,0.6-0.2c0.3,0,0.5,0.1,0.6,0.2    c0.2,0.2,0.2,0.4,0.2,0.6v0.2c0.4-0.4,0.8-0.7,1.3-0.9c0.5-0.2,1.1-0.3,1.6-0.3C79,4.1,79.7,4.3,80.3,4.6z"/>
		<path class="st2" d="M89.9,12.2c0.1,0.2,0.2,0.4,0.2,0.6c0,0.3-0.1,0.5-0.3,0.6c-0.2,0.2-0.4,0.2-0.7,0.2h-0.3    c-0.6,0-1.1-0.1-1.6-0.4c-0.5-0.3-0.8-0.7-1.1-1.2c-0.3-0.5-0.4-1.1-0.4-1.7V6h-0.8c-0.2,0-0.4-0.1-0.6-0.2    c-0.2-0.1-0.2-0.3-0.2-0.5c0-0.2,0.1-0.4,0.2-0.6c0.2-0.1,0.3-0.2,0.6-0.2h0.8V2c0-0.3,0.1-0.5,0.2-0.6c0.2-0.2,0.4-0.2,0.6-0.2    c0.3,0,0.5,0.1,0.6,0.2c0.2,0.2,0.2,0.4,0.2,0.6v2.5h1.5c0.2,0,0.4,0.1,0.6,0.2c0.2,0.1,0.2,0.3,0.2,0.6c0,0.2-0.1,0.4-0.2,0.5    C89.3,6,89.1,6,88.9,6h-1.5v4.3c0,0.5,0.1,0.9,0.4,1.2c0.3,0.3,0.6,0.5,0.9,0.5h0.6C89.5,11.9,89.7,12,89.9,12.2z"/>
	</g>
</g>
</svg>