<!-- Generator: Adobe Illustrator 23.0.4, SVG Export Plug-In  -->
<svg version="1.1" xmlns="http://www.w3.org/2000/svg" xmlns:xlink="http://www.w3.org/1999/xlink" x="0px" y="0px" viewBox="0 0 1000 222.6" style="enable-background:new 0 0 1000 222.6;" xml:space="preserve">
<style type="text/css">
	.st0{fill:#004B74;}
	.st1{fill-rule:evenodd;clip-rule:evenodd;fill:#004B74;}
	.st2{fill-rule:evenodd;clip-rule:evenodd;fill:#863D8B;}
	.st3{fill-rule:evenodd;clip-rule:evenodd;fill:#00B4BD;}
	.st4{fill-rule:evenodd;clip-rule:evenodd;fill:#739C38;}
	.st5{fill-rule:evenodd;clip-rule:evenodd;fill:#EA591F;}
</style>
<defs>
</defs>
<g>
	<g>
		<path class="st0" d="M316.1,160.7c-5.9-3.3-10.4-7.5-13.7-13.4c-3.6-5.9-5.2-12.4-5.2-19.6s1.6-14,4.9-19.6
			c2.9-5.9,7.5-10.4,13-13.7c5.5-3.3,12.1-4.9,19.2-4.9c6.8,0,13,1.6,17.9,4.9c5.2,2.9,9.1,7.2,11.7,12.7c2.9,5.5,4.2,12.1,4.2,19.2
			c0,1.6-0.7,3.3-1.6,4.2c-1.3,1.3-2.9,1.6-4.6,1.6h-52.2c1,6.5,3.9,11.7,8.8,15.6c4.9,3.9,10.8,5.9,17.6,5.9c2.6,0,5.5-0.7,8.5-1.6
			c2.9-1,5.5-2,7.5-3.6c1-1,2.6-1.6,4.2-1.6c2,0,3.3,0.7,4.2,1.6c1.6,1.3,2.6,2.9,2.6,4.6s-1,2.9-2.3,3.9c-3.3,2.6-6.8,4.6-11.7,6.2
			c-4.6,1.6-8.8,2.3-13,2.3C328.8,165.6,322,164,316.1,160.7z M349,106.9c-3.9-3.6-8.8-5.5-14.7-5.5c-6.8,0-12.1,2-16.3,5.5
			c-4.2,3.6-6.8,8.5-7.8,14.7h45.6C354.9,115.4,352.6,110.5,349,106.9z"/>
		<path class="st0" d="M388.2,163.3c-1.3-1.3-2-2.9-2-5.2v-61c0-2,0.7-3.6,2-4.9c1.3-1.3,2.9-2,4.9-2c2.3,0,3.9,0.7,5.2,2
			c1,1.3,1.6,2.9,1.6,4.9v1.6c2.9-2.9,6.5-5.2,10.4-6.8c4.2-1.6,8.5-2.3,13-2.3c6.2,0,11.7,1.3,17,3.9c4.9,2.9,8.8,6.8,11.7,12.1
			s4.2,11.7,4.2,18.9v33.6c0,2.3-0.7,3.9-2,5.2c-1.3,1.3-2.9,2-4.9,2c-2.3,0-3.9-0.7-5.2-2c-1.3-1.3-2-2.9-2-5.2v-33.6
			c0-7.2-2-13-5.9-16.6c-3.9-3.9-9.1-5.9-16-5.9c-3.6,0-7.2,1-10.4,2.6c-2.9,1.3-5.5,3.6-7.2,6.2c-2,2.6-2.9,5.5-2.9,8.8v38.5
			c0,2.3-0.7,3.9-1.6,5.2c-1.3,1.3-2.9,2-5.2,2C391.1,165.3,389.5,164.6,388.2,163.3z"/>
		<path class="st0" d="M500.9,164c-1-0.7-2-2-2.9-3.6l-29-61c-0.3-1-0.3-1.6-0.3-2.6c0-2.3,1.3-4.2,3.6-5.5c1-0.7,2-0.7,2.9-0.7
			c1.3,0,2.3,0.3,3.3,0.7c1,0.7,1.6,1.6,2.3,2.6l23.8,51.5L528,93.9c0.7-1,1.3-2,2.6-2.6c1-0.3,2-0.7,3.3-0.7c1,0,2.3,0,3.3,0.7
			c1,0.7,2,1.3,2.6,2.3c0.7,1,1,2,1,3.3c0,0.7-0.3,1.6-0.7,2.6l-29,61c-1.3,2.9-3.6,4.6-6.2,4.6C503.2,164.9,501.9,164.6,500.9,164z
			"/>
		<path class="st0" d="M557.7,163c-1.3-1.3-2-2.9-2-4.9v-61c0-2,0.7-3.6,2-4.9c1.3-1.3,2.9-2,4.9-2c2.3,0,3.9,0.7,5.2,2
			c1.3,1.3,2,2.9,2,4.9v61c0,2-0.7,3.6-2,4.9c-1.3,1.3-2.9,2-5.2,2C560.6,164.9,559,164.3,557.7,163z M556.4,75.3
			c-2-1.6-2.6-3.9-2.6-6.2c0-2.6,0.7-4.6,2.6-6.5c1.6-1.6,3.9-2.6,6.2-2.6c2.6,0,4.6,1,6.5,2.6c1.6,2,2.6,3.9,2.6,6.5
			c0,2.3-1,4.6-2.6,6.2c-2,2-3.9,2.9-6.5,2.9C560.3,78.2,558,77.2,556.4,75.3z"/>
		<path class="st0" d="M608.8,160.7c-5.2-3.3-9.5-7.8-12.4-13.7c-3.3-5.9-4.6-12.1-4.6-19.2s1.6-13.7,4.9-19.2
			c3.3-5.9,7.8-10.4,13.4-14c5.9-3.3,12.4-4.9,19.2-4.9c7.2,0,13.4,1.6,19.2,4.9c5.5,3.6,10.1,8.1,13.4,14
			c3.6,5.5,5.2,12.1,5.2,19.2v30.3c0,2.3-0.7,3.9-2,5.2c-1.3,1.3-3.3,2-5.2,2s-3.6-0.7-4.9-2c-1.3-1.3-2-2.9-2-5.2v-4.9
			c-3.3,3.9-7.2,6.8-11.7,9.1c-4.6,2.3-9.5,3.3-14.7,3.3C620.2,165.6,614.4,164,608.8,160.7z M641.8,149.9c3.9-2.3,6.8-5.2,8.8-9.1
			s3.3-8.1,3.3-13s-1.3-9.1-3.3-13c-2-3.9-4.9-7.2-8.8-9.5c-3.6-2.3-7.8-3.3-12.4-3.3c-4.6,0-8.5,1-12.4,3.3
			c-3.6,2.3-6.5,5.5-8.8,9.5c-2,3.9-2.9,8.1-2.9,13s1,9.1,2.9,13c2.3,3.9,5.2,6.8,8.8,9.1c3.9,2.3,7.8,3.3,12.4,3.3
			C633.9,153.2,638.2,152.2,641.8,149.9z"/>
		<path class="st0" d="M685.1,164.3c-2-1.6-2.6-3.9-2.6-6.5s0.7-4.9,2.6-6.8c2-1.6,4.2-2.6,6.8-2.6c2.6,0,4.6,1,6.5,2.6
			c2,2,2.6,4.2,2.6,6.8s-0.7,4.9-2.6,6.5c-1.6,2-3.9,2.9-6.5,2.9C689.4,167.2,687.1,166.2,685.1,164.3z"/>
		<path class="st0" d="M735,160.7c-5.9-3.3-10.4-7.8-13.7-13.7s-4.9-12.1-4.9-19.2s1.6-14,4.9-19.6c2.9-5.9,7.5-10.4,13-13.7
			c5.9-3.3,12.1-4.9,19.2-4.9c10.8,0,19.9,4.2,26.7,12.4c1,1,1.6,2.3,1.6,3.6c0,2-1,3.6-3.3,4.9c-0.7,0.7-2,1-2.9,1
			c-2.3,0-3.9-0.7-5.5-2.3c-2.3-2.6-4.6-4.2-7.2-5.5c-2.9-1-5.9-1.6-9.5-1.6c-6.8,0-12.7,2.3-17,7.2c-4.6,4.6-6.5,10.8-6.5,18.6
			c0,4.9,1,9.5,2.9,13c2,3.9,4.9,6.8,8.5,9.1c3.9,2.3,8.1,3.3,12.7,3.3c6.2,0,11.4-1.6,15-4.6c2-1.3,3.6-2,5.2-2
			c1.3,0,2.6,0.3,3.6,1c1.6,1.6,2.6,3.3,2.6,5.2c0,1.3-0.7,2.6-1.6,3.6c-6.5,6.2-15,9.1-24.8,9.1C747,165.6,740.5,164,735,160.7z"/>
		<path class="st0" d="M816.8,160.7c-5.5-3.3-10.1-7.5-13.4-13.4s-4.6-12.4-4.6-19.6c0-7.5,1.3-14,4.6-19.9
			c3.3-5.5,7.8-10.1,13.4-13.4c5.9-3.3,12.4-4.9,19.6-4.9s13.7,1.6,19.6,4.9c5.5,3.3,10.1,7.8,13.4,13.4c3.3,5.9,4.9,12.4,4.9,19.9
			c0,7.2-1.6,13.7-4.9,19.6c-3.3,5.9-7.5,10.1-13.4,13.4c-5.5,3.3-12.1,4.9-19.6,4.9C829.2,165.6,822.7,164,816.8,160.7z
			 M849.1,149.9c3.6-2.3,6.5-5.2,8.5-9.1c2.3-3.6,3.3-8.1,3.3-13s-1-9.5-3.3-13.4c-2-3.9-4.9-6.8-8.5-9.1c-3.6-2.3-7.8-3.3-12.7-3.3
			c-4.6,0-8.8,1-12.4,3.3c-3.6,2.3-6.5,5.2-8.8,9.1c-2,3.9-2.9,8.5-2.9,13.4s1,9.5,2.9,13c2.3,3.9,5.2,6.8,8.8,9.1
			c3.6,2.3,7.8,3.3,12.4,3.3C841.3,153.2,845.5,152.2,849.1,149.9z"/>
		<path class="st0" d="M897,163.3c-1.6-1.3-2.3-2.9-2.3-5.2V97.5c0-2.3,0.7-3.9,2.3-5.2c1.3-1.3,2.9-2,4.9-2s3.6,0.7,4.9,2
			c1.3,1.3,2,2.9,2,4.9c2.6-2.3,5.2-4.2,8.5-5.5c3.3-1.3,6.8-2,10.8-2c4.6,0,8.8,1,12.4,2.6c3.9,2,6.8,4.6,9.1,8.1
			c2.9-3.3,6.2-5.9,10.4-7.8c3.9-2,8.5-2.9,13.7-2.9c7.8,0,14.3,2.6,19.2,7.8c4.9,5.2,7.2,12.4,7.2,21.5v39.1c0,2.3-0.7,3.9-2,5.2
			c-1.3,1.3-2.9,2-4.9,2c-2.3,0-3.9-0.7-5.2-2c-1.3-1.3-2-2.9-2-5.2V119c0-5.5-1.3-9.8-4.2-12.4c-2.6-2.9-6.2-4.6-11.1-4.6
			c-4.6,0-8.5,1.6-11.7,5.2c-2.9,3.3-4.6,7.2-4.6,12.4v38.5c0,2.3-0.7,3.9-2,5.2c-1,1.3-2.9,2-4.9,2s-3.6-0.7-4.9-2
			c-1.3-1.3-2-2.9-2-5.2V119c0-5.5-1.6-9.8-4.2-12.4c-2.9-2.9-6.5-4.6-11.1-4.6c-4.9,0-8.8,1.6-12.1,5.2c-2.9,3.3-4.6,7.2-4.6,12.4
			v38.5c0,2.3-0.7,3.9-2,5.2c-1.3,1.3-2.9,2-4.9,2S898.3,164.6,897,163.3z"/>
	</g>
</g>
<g>
	<path class="st1" d="M164.2,178.3l-3.3-34.6L172,61.9c0.3-1,1-2,2-2.6c1.3-1.6,2.9-2.3,4.9-2.3c1,0.3,2,1.3,2,2.6l5.2,56.7
		l-11.7,59.3l0,0c-0.3,1-1,2.3-2,2.9c-1.6,1.6-3.6,2.3-5.2,2.3C165.5,180.9,164.2,179.9,164.2,178.3z"/>
	<path class="st1" d="M122.2,172.4l-2.9-11.4l4.2-57.4c0.3-1,0.7-2.3,1.6-2.9c0.7-1,2-1.6,2.9-2.3c1.6,0.7,2.9,1.6,3.3,3.3l6.8,25.8
		l-5.9,42.7v0.3c-0.3,0.7-1,1.6-1.6,2.3c-1.3,1.6-3.3,2.6-5.2,2.9C124.1,175.4,122.5,174.1,122.2,172.4z"/>
	<path class="st1" d="M82.7,166.6l-4.9-8.8l2.9-26.7c0.3-0.7,0.7-1.6,1.3-2.3c1.3-1,2.6-1.6,3.9-1.6c1.6,0.3,2.9,1.3,3.6,2.6
		l4.9,8.8l-1.6,25.8v0.3c-0.3,0.7-1,1.3-1.6,2c-1.3,1.6-2.9,2.3-4.9,2.6C85,168.8,83.4,167.9,82.7,166.6z M80.8,130.7L80.8,130.7
		L80.8,130.7L80.8,130.7z"/>
	<path class="st1" d="M55,198.5c0-13,10.8-23.5,23.8-23.5c12.7,0,23.5,10.4,23.5,23.5S91.5,222,78.8,222C65.8,222,55,211.5,55,198.5
		z"/>
	<path class="st1" d="M141.1,204.4c0-9.8,8.1-17.9,18.3-17.9s17.9,8.1,17.9,17.9c0,10.1-7.8,18.3-17.9,18.3S141.1,214.5,141.1,204.4
		z"/>
	<path class="st2" d="M73.6,168.2l-18.9-2.9l-3.3-0.3l0,0l-1.3-0.3l0,0l-4.6-0.7c1.3,0,2.9-0.7,3.9-2c0.7-0.7,1-1.3,1.3-2.3l0,0
		l3.6-35.2c0.3-1.6,2-2.9,3.9-2.9l2.3,0.3l19.6,3.9l0,0l1.6,0.3l0,0l4.2,1c-1.3,0-2.6,0.7-3.9,1.6c-0.7,0.7-1,1.6-1.3,2.3l-3.6,34.2
		C77.2,167.2,75.2,168.5,73.6,168.2z M80.8,130.7L80.8,130.7L80.8,130.7L80.8,130.7z"/>
	<path class="st3" d="M115,174.1h-0.3l-22.2-3.9l0,0l-6.2-1c2,0,3.6-1,4.9-2.6c0.7-0.7,1.3-1.3,1.6-2v-0.3l4.9-67.8
		c0-2,1.6-3.3,3.6-3.3h0.3l26.4,5.2l0,0c-1,0.7-2,1.3-2.9,2.3c-1,1-1.3,2-1.6,2.9l-4.9,67.1C118.3,172.8,116.6,174.1,115,174.1z"/>
	<path class="st4" d="M154.4,179.3l-22.8-2.9l-6.2-0.7c2-0.3,3.9-1.3,5.2-2.9c0.7-0.7,1.3-1.6,1.6-2.3v-0.3l16-117
		c0-0.7,0.3-1.6,1-2c1-0.7,2-0.7,2.9-0.7c0.3,0,0.3,0.3,0.7,0.3l0,0l20.2,4.6l0.3,0.3l5.5,1.3c-2,0-3.6,0.7-4.9,2.3
		c-1,0.7-1.6,1.6-2,2.6L156.4,177C156.4,178,155.4,178.9,154.4,179.3L154.4,179.3z"/>
	<path class="st5" d="M197.1,186.1l-24.1-3.9l0,0l-6.2-1.3c2,0,3.9-0.7,5.5-2.3c1-0.7,1.6-1.6,2-2.9l0,0L208.5,3.6
		c0-0.7,0.3-1.3,1-1.6c1-1,2.3-1.6,3.6-2l28.4,3.6c-2,0.3-3.9,1-5.2,2.3c-1,1-1.6,2-2,3.3l-34.9,175
		C199.1,185.1,198.1,186.1,197.1,186.1L197.1,186.1z"/>
	<path class="st1" d="M251.2,39.1l-21.8-5.9l4.9-24.1c0.3-1.3,1-2.3,2-3.3c1.3-1.3,3.3-2,5.2-2.3c1.3,0,2.6,1.3,3.3,2.6l9.1,30.3
		c0.3,1.3-0.3,2.6-2,2.6H251.2z"/>
	<path class="st1" d="M42,162.3L0.3,79.2c-1.3-2.3,2.6-5.5,5.2-5.5l31.6,4.9l0,0l25.1,3.6l-7.5,20.2l-9.8-1.3l-9.8-1l12.4,27.1
		l5.2,12.1l-2,20.5l0,0c-0.3,1-0.7,1.6-1.3,2.3c-1,1.3-2.6,2-3.9,2C43.6,163.6,42.3,163,42,162.3z"/>
</g>
</svg>