<?xml version="1.0" encoding="utf-8"?>
<!-- Generator: Adobe Illustrator 23.0.4, SVG Export Plug-In . SVG Version: 6.00 Build 0)  -->
<svg version="1.1" id="Capa_1" xmlns="http://www.w3.org/2000/svg" xmlns:xlink="http://www.w3.org/1999/xlink" x="0px" y="0px"
	 viewBox="0 0 290.64 65.64" style="enable-background:new 0 0 290.64 65.64;" xml:space="preserve">
<style type="text/css">
	.st0{fill-rule:evenodd;clip-rule:evenodd;fill:#00496C;}
	.st1{fill-rule:evenodd;clip-rule:evenodd;fill:#7C3A7E;}
	.st2{fill-rule:evenodd;clip-rule:evenodd;fill:#2A9DA5;}
	.st3{fill-rule:evenodd;clip-rule:evenodd;fill:#699538;}
	.st4{fill-rule:evenodd;clip-rule:evenodd;fill:#C85331;}
	.st5{fill:#00496C;}
</style>
<g>
	<g>
		<path class="st0" d="M26.58,50.12l-0.99-0.17c0,0-0.01,0-0.01,0s-0.01,0-0.01-0.01c-0.17-0.03-0.36-0.1-0.56-0.21
			c-0.28-0.15-0.5-0.35-0.67-0.57l-7.28-11.36l2.39-1.56l2.6,0.49l1.81,0.35l6.7,10.45L26.58,50.12z"/>
		<path class="st0" d="M20.56,49.16l-7.41-1.08c-0.2-0.06-0.4-0.17-0.57-0.34c-0.13-0.12-0.22-0.26-0.29-0.41
			c-0.01-0.01-0.01-0.02-0.02-0.03l-0.03-0.07l0,0L1.08,25.16c0.01-0.01,0.02-0.02,0.03-0.03c-0.01-0.02-0.02-0.03-0.03-0.05
			C1.03,25,0.97,24.92,0.92,24.84l-0.81-1.61c-0.48-1.57,0.7-1.98,3.08-1.66l0.27,0.04c-0.02-0.01,0.03,0,0.1,0.02v-0.01
			c0.11,0.02,0.21,0.03,0.31,0.06c0-0.01,0-0.01,0-0.01l2.61,0.4l11.88,1.84l-2.28,6.44l-5.44-0.85L20.56,49.16z"/>
		<path class="st0" d="M43.34,52.31l-6.37-0.84h-0.02c0,0,0,0,0.01,0h0.01l0.04,0.01c-0.18-0.05-0.36-0.15-0.51-0.3
			c-0.22-0.21-0.35-0.47-0.39-0.71l0.01,0.03l-5.63-22.64l6.44,1.04l-0.1-0.02c0.19,0.06,0.38,0.16,0.55,0.31
			c0.22,0.2,0.35,0.46,0.38,0.71l-0.01-0.03L43.34,52.31z"/>
		<path class="st0" d="M55.73,54.21l-6.02-0.94c-0.22-0.04-0.43-0.16-0.61-0.34c-0.2-0.21-0.31-0.47-0.32-0.71v0.03l-3.36-35.62
			l4.34-0.43l1.99,0.46c0.17,0.06,0.34,0.16,0.47,0.3c0.16,0.17,0.27,0.38,0.3,0.59l3.46,36.63L55.73,54.21z"/>
		<path class="st0" d="M66.79,11.76L63.3,0.17l6.73,0.69c0.11,0.02,0.22,0.06,0.32,0.13c0.17,0.11,0.31,0.28,0.39,0.46l2.79,9.26
			l-0.01-0.02c0,0.01,0.01,0.02,0.01,0.03l0.09,0.31c0.02,0.14,0.01,0.26-0.05,0.34c-0.07,0.11-0.2,0.15-0.37,0.13l-6.02-1.52
			L66.79,11.76z"/>
		<path class="st1" d="M20.55,49.16l-6.56-0.95l0.01-0.07l-0.01,0.07l-0.72-0.11c0.16-0.02,0.31-0.08,0.45-0.17
			c0.19-0.13,0.31-0.33,0.36-0.53l1.16-10.89v0.02c0.01-0.25,0.12-0.49,0.32-0.66c0.14-0.12,0.31-0.2,0.49-0.22
			c0.02,0,0.04,0,0.06,0l7.03,1.31v0.03v-0.03l0.04,0.01l0.7,0.13c-0.16,0.01-0.33,0.06-0.47,0.16c-0.2,0.13-0.32,0.33-0.36,0.54
			L21.94,48.1c-0.07,0.31-0.24,0.61-0.52,0.81C21.16,49.1,20.85,49.17,20.55,49.16z"/>
		<path class="st2" d="M33.53,51.25l-7.21-1.17l-0.6-0.1l-0.2-0.03h0.01c0.2,0.02,0.4-0.06,0.56-0.24c0.16-0.17,0.26-0.42,0.3-0.69
			l1.52-20.48c0.03-0.25,0.16-0.49,0.36-0.67c0.2-0.18,0.45-0.28,0.71-0.28l0.01-0.01c0.01,0,0.02,0,0.03,0L36,28.76l0.56,0.09
			l0.33,0.06h-0.01c-0.21-0.02-0.43,0.04-0.61,0.19c-0.18,0.15-0.29,0.37-0.34,0.61l-1.52,20.6c-0.05,0.25-0.19,0.49-0.39,0.67
			C33.87,51.11,33.7,51.2,33.53,51.25z"/>
		<path class="st3" d="M44.46,52.44l-6.63-0.85L37,51.48c0.2,0.01,0.4-0.05,0.57-0.17c0.21-0.14,0.34-0.35,0.39-0.58l4.65-34.53
			v0.02c0.04-0.36,0.22-0.73,0.54-0.99c0.28-0.23,0.61-0.35,0.94-0.35h0.01l-0.02-0.01l-0.15-0.01c0.02,0,0.05,0,0.08,0
			c0.02,0,0.03,0,0.05,0l6.38,1.49l-0.05,0.39l0.06-0.39l1.38,0.32h-0.01c-0.33-0.06-0.67-0.02-0.97,0.15
			c-0.3,0.18-0.5,0.46-0.58,0.77l-4.6,34.13c-0.06,0.21-0.18,0.41-0.38,0.54c-0.19,0.13-0.42,0.19-0.63,0.17h-0.01h0.02H44.46z"/>
		<path class="st4" d="M58.26,54.59h-0.01l0.11-0.52L58.26,54.59z M58.14,54.58l-7.55-1.17V53.4h-0.01l-0.8-0.12l-0.22-0.04
			c0.01,0,0.01,0,0.01,0c0.24,0.03,0.51-0.02,0.73-0.16c0.24-0.15,0.4-0.37,0.48-0.62L61.06,0.88c0.06-0.23,0.2-0.44,0.4-0.6
			c0.21-0.15,0.45-0.22,0.69-0.21L61.44,0l0.71,0.07L69,0.75l0.9,0.09V0.84l0.11,0.01C70,0.85,70,0.85,70,0.85
			c-0.24-0.01-0.5,0.06-0.72,0.21c-0.25,0.18-0.42,0.44-0.49,0.71L69,0.75L58.4,53.87c-0.06,0.2-0.19,0.37-0.38,0.49
			c-0.13,0.08-0.27,0.12-0.41,0.13L58.14,54.58z"/>
		<path class="st0" d="M16.46,57.06c0.9-3.72,4.66-6.01,8.38-5.11c3.72,0.9,6.01,4.66,5.11,8.38c-0.9,3.72-4.66,6.01-8.38,5.12
			C17.85,64.54,15.55,60.79,16.46,57.06z"/>
		<path class="st0" d="M40.88,58.85c0.69-2.86,3.58-4.62,6.44-3.93c2.86,0.69,4.62,3.58,3.93,6.44c-0.7,2.86-3.58,4.62-6.44,3.93
			C41.95,64.6,40.18,61.72,40.88,58.85z"/>
	</g>
	<g>
		<path class="st5" d="M105.06,19.68c0.35,0.35,0.52,0.79,0.52,1.33s-0.17,0.98-0.52,1.33c-0.35,0.35-0.79,0.52-1.33,0.52h-8.26
			v24.31c0,0.56-0.19,1.04-0.58,1.42c-0.38,0.38-0.86,0.58-1.42,0.58c-0.56,0-1.04-0.19-1.42-0.58c-0.38-0.38-0.58-0.86-0.58-1.42
			V22.85h-8.3c-0.54,0-0.98-0.17-1.33-0.52c-0.35-0.35-0.52-0.79-0.52-1.33s0.17-0.98,0.52-1.33c0.35-0.35,0.79-0.52,1.33-0.52
			h20.55C104.27,19.16,104.71,19.34,105.06,19.68z"/>
		<path class="st5" d="M122.21,39.54c-0.33,0.32-0.76,0.48-1.27,0.48h-14.6c0.28,1.79,1.09,3.24,2.44,4.34
			c1.34,1.1,2.99,1.65,4.94,1.65c0.77,0,1.57-0.14,2.4-0.42c0.83-0.28,1.52-0.63,2.06-1.04c0.36-0.28,0.78-0.42,1.27-0.42
			c0.49,0,0.87,0.13,1.15,0.38c0.46,0.38,0.69,0.82,0.69,1.31c0,0.46-0.21,0.85-0.61,1.15c-0.87,0.69-1.95,1.26-3.25,1.69
			c-1.29,0.44-2.53,0.65-3.71,0.65c-2.1,0-3.98-0.45-5.65-1.36c-1.66-0.91-2.96-2.17-3.9-3.78c-0.94-1.61-1.4-3.44-1.4-5.49
			c0-2.05,0.44-3.89,1.33-5.51c0.88-1.63,2.11-2.89,3.69-3.8c1.57-0.91,3.36-1.36,5.36-1.36c1.97,0,3.67,0.44,5.11,1.31
			c1.43,0.87,2.54,2.09,3.3,3.65c0.77,1.56,1.15,3.35,1.15,5.38C122.71,38.82,122.54,39.22,122.21,39.54z M108.59,32.84
			c-1.17,1.02-1.9,2.39-2.21,4.11h12.79c-0.23-1.72-0.87-3.09-1.92-4.11c-1.05-1.02-2.42-1.54-4.11-1.54
			C111.27,31.3,109.76,31.81,108.59,32.84z"/>
		<path class="st5" d="M142.91,29.11c1.41,0.77,2.51,1.89,3.3,3.36c0.79,1.47,1.19,3.25,1.19,5.32v9.45c0,0.56-0.19,1.03-0.56,1.4
			c-0.37,0.37-0.84,0.56-1.4,0.56c-0.56,0-1.03-0.19-1.4-0.56c-0.37-0.37-0.56-0.84-0.56-1.4v-9.45c0-2.07-0.56-3.64-1.67-4.71
			c-1.11-1.06-2.59-1.59-4.44-1.59c-1.08,0-2.06,0.22-2.94,0.65c-0.88,0.44-1.57,1.02-2.07,1.77c-0.5,0.74-0.75,1.57-0.75,2.5v10.83
			c0,0.56-0.18,1.03-0.54,1.4c-0.36,0.37-0.83,0.56-1.42,0.56c-0.56,0-1.03-0.19-1.4-0.56c-0.37-0.37-0.56-0.84-0.56-1.4V30.11
			c0-0.59,0.19-1.06,0.56-1.42c0.37-0.36,0.84-0.54,1.4-0.54c0.59,0,1.06,0.18,1.42,0.54c0.36,0.36,0.54,0.83,0.54,1.42v0.42
			c0.82-0.82,1.79-1.45,2.92-1.9c1.13-0.45,2.33-0.67,3.61-0.67C139.92,27.96,141.5,28.34,142.91,29.11z"/>
		<path class="st5" d="M173.45,19.7c0.36,0.36,0.54,0.83,0.54,1.42v17.52c0,2-0.47,3.81-1.4,5.44c-0.94,1.63-2.2,2.91-3.8,3.84
			c-1.6,0.94-3.39,1.4-5.36,1.4c-1.97,0-3.77-0.47-5.4-1.4c-1.63-0.93-2.9-2.21-3.82-3.84c-0.92-1.63-1.38-3.44-1.38-5.44
			s0.43-3.81,1.29-5.44c0.86-1.63,2.04-2.9,3.53-3.82c1.5-0.92,3.17-1.38,5.01-1.38c1.48,0,2.87,0.31,4.15,0.92
			c1.28,0.61,2.37,1.47,3.26,2.57V21.12c0-0.59,0.19-1.06,0.56-1.42c0.37-0.36,0.84-0.54,1.4-0.54
			C172.62,19.16,173.09,19.34,173.45,19.7z M166.9,44.92c1.04-0.63,1.85-1.49,2.44-2.59c0.59-1.1,0.88-2.33,0.88-3.69
			c0-1.36-0.29-2.58-0.88-3.67c-0.59-1.09-1.4-1.95-2.44-2.57c-1.04-0.63-2.2-0.94-3.48-0.94c-1.28,0-2.44,0.31-3.48,0.94
			c-1.04,0.63-1.86,1.49-2.46,2.57c-0.6,1.09-0.9,2.31-0.9,3.67c0,1.36,0.3,2.59,0.9,3.69c0.6,1.1,1.42,1.97,2.46,2.59
			c1.04,0.63,2.2,0.94,3.48,0.94C164.7,45.86,165.86,45.55,166.9,44.92z"/>
		<path class="st5" d="M199.26,39.54c-0.33,0.32-0.76,0.48-1.27,0.48h-14.6c0.28,1.79,1.09,3.24,2.44,4.34
			c1.34,1.1,2.99,1.65,4.94,1.65c0.77,0,1.57-0.14,2.4-0.42c0.83-0.28,1.52-0.63,2.06-1.04c0.36-0.28,0.78-0.42,1.27-0.42
			c0.49,0,0.87,0.13,1.15,0.38c0.46,0.38,0.69,0.82,0.69,1.31c0,0.46-0.21,0.85-0.61,1.15c-0.87,0.69-1.95,1.26-3.25,1.69
			c-1.29,0.44-2.53,0.65-3.71,0.65c-2.1,0-3.98-0.45-5.65-1.36c-1.66-0.91-2.96-2.17-3.9-3.78c-0.94-1.61-1.4-3.44-1.4-5.49
			c0-2.05,0.44-3.89,1.33-5.51c0.88-1.63,2.11-2.89,3.69-3.8c1.57-0.91,3.36-1.36,5.36-1.36c1.97,0,3.67,0.44,5.11,1.31
			c1.43,0.87,2.54,2.09,3.3,3.65c0.77,1.56,1.15,3.35,1.15,5.38C199.76,38.82,199.59,39.22,199.26,39.54z M185.64,32.84
			c-1.17,1.02-1.9,2.39-2.21,4.11h12.79c-0.23-1.72-0.87-3.09-1.92-4.11c-1.05-1.02-2.42-1.54-4.11-1.54
			C188.33,31.3,186.81,31.81,185.64,32.84z"/>
		<path class="st5" d="M219.96,29.11c1.41,0.77,2.51,1.89,3.3,3.36c0.79,1.47,1.19,3.25,1.19,5.32v9.45c0,0.56-0.19,1.03-0.56,1.4
			c-0.37,0.37-0.84,0.56-1.4,0.56c-0.56,0-1.03-0.19-1.4-0.56c-0.37-0.37-0.56-0.84-0.56-1.4v-9.45c0-2.07-0.56-3.64-1.67-4.71
			c-1.11-1.06-2.59-1.59-4.44-1.59c-1.08,0-2.06,0.22-2.94,0.65c-0.88,0.44-1.57,1.02-2.07,1.77c-0.5,0.74-0.75,1.57-0.75,2.5v10.83
			c0,0.56-0.18,1.03-0.54,1.4c-0.36,0.37-0.83,0.56-1.42,0.56c-0.56,0-1.03-0.19-1.4-0.56c-0.37-0.37-0.56-0.84-0.56-1.4V30.11
			c0-0.59,0.19-1.06,0.56-1.42c0.37-0.36,0.84-0.54,1.4-0.54c0.59,0,1.06,0.18,1.42,0.54c0.36,0.36,0.54,0.83,0.54,1.42v0.42
			c0.82-0.82,1.79-1.45,2.92-1.9c1.13-0.45,2.33-0.67,3.61-0.67C216.97,27.96,218.56,28.34,219.96,29.11z"/>
		<path class="st5" d="M235.02,47.93c-1.61-0.92-2.87-2.2-3.78-3.82c-0.91-1.63-1.36-3.44-1.36-5.44c0-2.05,0.44-3.89,1.33-5.51
			c0.88-1.63,2.12-2.89,3.71-3.8c1.59-0.91,3.38-1.36,5.38-1.36c3.02,0,5.53,1.15,7.53,3.46c0.26,0.28,0.38,0.61,0.38,1
			c0,0.56-0.28,1.04-0.84,1.42c-0.26,0.18-0.55,0.27-0.88,0.27c-0.59,0-1.09-0.23-1.5-0.69c-0.64-0.69-1.34-1.2-2.09-1.52
			c-0.76-0.32-1.62-0.48-2.59-0.48c-1.97,0-3.57,0.66-4.8,1.98c-1.23,1.32-1.84,3.07-1.84,5.24c0,1.38,0.29,2.62,0.86,3.71
			c0.58,1.09,1.38,1.94,2.42,2.55s2.22,0.92,3.55,0.92c1.74,0,3.15-0.45,4.23-1.34c0.49-0.36,0.96-0.54,1.42-0.54
			c0.36,0,0.69,0.12,1,0.35c0.49,0.41,0.73,0.87,0.73,1.38c0,0.38-0.15,0.73-0.46,1.04c-1.84,1.72-4.15,2.57-6.91,2.57
			C238.45,49.32,236.63,48.86,235.02,47.93z"/>
		<path class="st5" d="M271.28,29.84c0,0.26-0.08,0.56-0.23,0.92L259.3,57.19c-0.31,0.79-0.81,1.19-1.5,1.19
			c-0.26,0-0.56-0.08-0.92-0.23c-0.77-0.33-1.15-0.83-1.15-1.5c0-0.31,0.08-0.61,0.23-0.92l3.84-8.64l-8.64-16.4
			c-0.13-0.23-0.19-0.5-0.19-0.81c0-0.33,0.1-0.64,0.31-0.92c0.2-0.28,0.47-0.5,0.81-0.65c0.23-0.1,0.49-0.15,0.77-0.15
			c0.72,0,1.25,0.36,1.61,1.08l7.03,13.98l6.18-13.94c0.33-0.74,0.83-1.11,1.5-1.11c0.33,0,0.64,0.06,0.92,0.19
			C270.88,28.65,271.28,29.15,271.28,29.84z"/>
		<path class="st5" d="M277.47,48.51c-1.54-0.54-2.74-1.24-3.61-2.11c-0.33-0.33-0.5-0.73-0.5-1.19c0-0.61,0.26-1.11,0.77-1.5
			c0.49-0.36,0.93-0.54,1.34-0.54c0.51,0,1,0.23,1.46,0.69c0.49,0.54,1.22,1.01,2.19,1.4c0.97,0.4,2.01,0.6,3.11,0.6
			c1.46,0,2.59-0.24,3.4-0.73c0.81-0.49,1.21-1.14,1.21-1.96c0-0.79-0.4-1.45-1.19-1.98c-0.79-0.52-2.14-0.97-4.03-1.33
			c-4.92-0.95-7.38-2.97-7.38-6.07c0-1.25,0.37-2.32,1.11-3.19c0.74-0.87,1.72-1.52,2.92-1.96c1.2-0.44,2.48-0.65,3.84-0.65
			c1.66,0,3.16,0.27,4.47,0.81c1.32,0.54,2.36,1.28,3.13,2.23c0.33,0.41,0.5,0.82,0.5,1.23c0,0.44-0.22,0.83-0.65,1.19
			c-0.28,0.21-0.64,0.31-1.08,0.31c-0.67,0-1.27-0.24-1.81-0.73c-0.64-0.59-1.32-1-2.04-1.25c-0.72-0.24-1.59-0.37-2.61-0.37
			c-1.18,0-2.15,0.2-2.9,0.6c-0.76,0.4-1.13,0.95-1.13,1.67c0,0.51,0.13,0.94,0.38,1.29c0.26,0.35,0.74,0.67,1.46,0.96
			c0.72,0.29,1.75,0.58,3.11,0.86c2.79,0.56,4.77,1.34,5.93,2.34c1.17,1,1.75,2.29,1.75,3.88c0,1.18-0.32,2.25-0.96,3.21
			c-0.64,0.96-1.58,1.72-2.82,2.27c-1.24,0.55-2.73,0.83-4.48,0.83C280.64,49.32,279,49.05,277.47,48.51z"/>
	</g>
</g>
</svg>
